<?xml version="1.0" encoding="UTF-8" standalone="no"?>
<!-- Generator: Adobe Illustrator 19.0.0, SVG Export Plug-In . SVG Version: 6.00 Build 0)  -->

<svg
   xmlns:dc="http://purl.org/dc/elements/1.1/"
   xmlns:cc="http://creativecommons.org/ns#"
   xmlns:rdf="http://www.w3.org/1999/02/22-rdf-syntax-ns#"
   xmlns:svg="http://www.w3.org/2000/svg"
   xmlns="http://www.w3.org/2000/svg"
   xmlns:sodipodi="http://sodipodi.sourceforge.net/DTD/sodipodi-0.dtd"
   xmlns:inkscape="http://www.inkscape.org/namespaces/inkscape"
   version="1.1"
   id="Layer_1"
   x="0px"
   y="0px"
   viewBox="0 0 229.59997 216"
   xml:space="preserve"
   sodipodi:docname="Sign.svg"
   inkscape:version="0.92.4 (5da689c313, 2019-01-14)"
   width="229.59998"
   height="216"><metadata
   id="metadata79"><rdf:RDF><cc:Work
       rdf:about=""><dc:format>image/svg+xml</dc:format><dc:type
         rdf:resource="http://purl.org/dc/dcmitype/StillImage" /><dc:title></dc:title></cc:Work></rdf:RDF></metadata><defs
   id="defs77">
	
	
	
</defs><sodipodi:namedview
   pagecolor="#ffffff"
   bordercolor="#666666"
   borderopacity="1"
   objecttolerance="10"
   gridtolerance="10"
   guidetolerance="10"
   inkscape:pageopacity="0"
   inkscape:pageshadow="2"
   inkscape:window-width="3840"
   inkscape:window-height="2055"
   id="namedview75"
   showgrid="false"
   inkscape:zoom="1.3414566"
   inkscape:cx="95.803545"
   inkscape:cy="253.83195"
   inkscape:window-x="3827"
   inkscape:window-y="-13"
   inkscape:window-maximized="1"
   inkscape:current-layer="Layer_1"
   fit-margin-top="0"
   fit-margin-left="0"
   fit-margin-right="0"
   fit-margin-bottom="0" />






<circle
   id="circle30"
   r="108"
   cy="108"
   cx="121.59998"
   style="opacity:0.3;fill:#9aa5a4;enable-background:new" />
<circle
   style="fill:#1080dd;fill-opacity:1"
   cx="108"
   cy="108"
   r="108"
   id="circle34" />
<path
   style="fill:#0667b7;fill-opacity:1"
   d="m 107.99998,3.1738281e-6 c 60,0 108,47.9999998261719 108,107.9999968261719 0,60 -48,108 -108,108"
   id="path36"
   inkscape:connector-curvature="0" />
<path
   style="fill:#0070cc;fill-opacity:1"
   d="m 31.999976,32.000003 c 42.4,-42.4 110.400004,-42.4 152.800004,0 42.4,42.4 42.4,110.399997 0,152.799997"
   id="path38"
   inkscape:connector-curvature="0" />
<path
   style="fill:#0667b7;fill-opacity:1"
   d="m 171.19998,97.600003 c -0.8,-2.4 -3.2,-4.8 -6.4,-5.6 l -30.4,-4 -12.8,-27.2 c -1.6,-2.4 -4,-4 -7.2,-4 -3.2,0 -5.6,1.6 -7.2,4 l -13.600004,27.2 -30.4,4 c -3.2,0.8 -5.6,2.4 -6.4,5.6 -0.8,2.399997 0,5.599997 1.6,7.999997 l 21.6,20.8 -4.8,29.6 c -0.8,3.2 0.8,5.6 3.2,7.2 2.4,1.6 5.6,1.6 8,0.8 l 27.200004,-14.4 27.2,14.4 c 0.8,0.8 2.4,0.8 4,0.8 1.6,0 3.2,-0.8 4.8,-1.6 2.4,-1.6 3.2,-4.8 3.2,-7.2 l -4.8,-29.6 21.6,-20.8 c 1.6,-1.6 2.4,-4.8 1.6,-7.999997 z"
   id="path40"
   inkscape:connector-curvature="0" />
<path
   style="fill:#ffffff"
   d="m 164.79998,87.200003 c -0.8,-2.4 -3.2,-4.8 -6.4,-5.6 l -30.4,-4 -13.6,-27.2 c -0.8,-2.4 -3.2,-4 -6.4,-4 -3.2,0 -5.6,1.6 -7.2,4 l -13.600004,27.2 -29.6,4.8 c -3.2,0.8 -5.6,2.4 -6.4,5.6 -0.8,2.4 0,5.6 1.6,8 l 21.6,20.799997 -4.8,29.6 c -0.8,3.2 0.8,5.6 3.2,7.2 2.4,1.6 5.6,1.6 8,0.8 l 27.200004,-14.4 27.2,14.4 c 0.8,0.8 2.4,0.8 3.2,0.8 1.6,0 3.2,-0.8 4.8,-1.6 2.4,-1.6 3.2,-4.8 3.2,-7.2 l -4.8,-29.6 21.6,-20.799997 c 1.6,-2.4 2.4,-5.6 1.6,-8.8 z"
   id="path42"
   inkscape:connector-curvature="0" />
<g
   id="g44"
   transform="translate(-237.20002,-281.6)">
</g>
<g
   id="g46"
   transform="translate(-237.20002,-281.6)">
</g>
<g
   id="g48"
   transform="translate(-237.20002,-281.6)">
</g>
<g
   id="g50"
   transform="translate(-237.20002,-281.6)">
</g>
<g
   id="g52"
   transform="translate(-237.20002,-281.6)">
</g>
<g
   id="g54"
   transform="translate(-237.20002,-281.6)">
</g>
<g
   id="g56"
   transform="translate(-237.20002,-281.6)">
</g>
<g
   id="g58"
   transform="translate(-237.20002,-281.6)">
</g>
<g
   id="g60"
   transform="translate(-237.20002,-281.6)">
</g>
<g
   id="g62"
   transform="translate(-237.20002,-281.6)">
</g>
<g
   id="g64"
   transform="translate(-237.20002,-281.6)">
</g>
<g
   id="g66"
   transform="translate(-237.20002,-281.6)">
</g>
<g
   id="g68"
   transform="translate(-237.20002,-281.6)">
</g>
<g
   id="g70"
   transform="translate(-237.20002,-281.6)">
</g>
<g
   id="g72"
   transform="translate(-237.20002,-281.6)">
</g>
</svg>