<?xml version="1.0" encoding="UTF-8" standalone="no"?>
<!-- Generator: Adobe Illustrator 19.0.0, SVG Export Plug-In . SVG Version: 6.00 Build 0)  -->

<svg
   xmlns:dc="http://purl.org/dc/elements/1.1/"
   xmlns:cc="http://creativecommons.org/ns#"
   xmlns:rdf="http://www.w3.org/1999/02/22-rdf-syntax-ns#"
   xmlns:svg="http://www.w3.org/2000/svg"
   xmlns="http://www.w3.org/2000/svg"
   xmlns:sodipodi="http://sodipodi.sourceforge.net/DTD/sodipodi-0.dtd"
   xmlns:inkscape="http://www.inkscape.org/namespaces/inkscape"
   version="1.1"
   id="Layer_1"
   x="0px"
   y="0px"
   viewBox="0 0 229.59997 216"
   xml:space="preserve"
   sodipodi:docname="Validated.svg"
   inkscape:version="0.92.4 (5da689c313, 2019-01-14)"
   width="229.59998"
   height="216"><metadata
   id="metadata81"><rdf:RDF><cc:Work
       rdf:about=""><dc:format>image/svg+xml</dc:format><dc:type
         rdf:resource="http://purl.org/dc/dcmitype/StillImage" /><dc:title></dc:title></cc:Work></rdf:RDF></metadata><defs
   id="defs79">
	
	
	
</defs><sodipodi:namedview
   pagecolor="#ffffff"
   bordercolor="#666666"
   borderopacity="1"
   objecttolerance="10"
   gridtolerance="10"
   guidetolerance="10"
   inkscape:pageopacity="0"
   inkscape:pageshadow="2"
   inkscape:window-width="4096"
   inkscape:window-height="2259"
   id="namedview77"
   showgrid="false"
   inkscape:zoom="5.3658264"
   inkscape:cx="189.81704"
   inkscape:cy="104.38232"
   inkscape:window-x="11507"
   inkscape:window-y="-13"
   inkscape:window-maximized="1"
   inkscape:current-layer="Layer_1"
   fit-margin-top="0"
   fit-margin-left="0"
   fit-margin-right="0"
   fit-margin-bottom="0" />






<circle
   id="circle30"
   r="108"
   cy="108.00001"
   cx="121.59998"
   style="opacity:0.3;fill:#9aa5a4;enable-background:new" />
<circle
   style="fill:#5ac117;fill-opacity:1"
   cx="108"
   cy="108.00001"
   r="108"
   id="circle34" />
<path
   style="fill:#44a307;fill-opacity:1"
   d="m 107.99999,0 c 60,0 108,48 108,108 0,60 -48,108 -108,108"
   id="path36"
   inkscape:connector-curvature="0" />
<path
   style="fill:#4db20d;fill-opacity:1"
   d="m 31.999988,32 c 42.4,-42.4 110.400002,-42.4 152.800002,0 42.4,42.4 42.4,110.4 0,152.8"
   id="path38"
   inkscape:connector-curvature="0" />



<g
   id="g46"
   transform="translate(-237.20001,-281.6)">
</g>
<g
   id="g48"
   transform="translate(-237.20001,-281.6)">
</g>
<g
   id="g50"
   transform="translate(-237.20001,-281.6)">
</g>
<g
   id="g52"
   transform="translate(-237.20001,-281.6)">
</g>
<g
   id="g54"
   transform="translate(-237.20001,-281.6)">
</g>
<g
   id="g56"
   transform="translate(-237.20001,-281.6)">
</g>
<g
   id="g58"
   transform="translate(-237.20001,-281.6)">
</g>
<g
   id="g60"
   transform="translate(-237.20001,-281.6)">
</g>
<g
   id="g62"
   transform="translate(-237.20001,-281.6)">
</g>
<g
   id="g64"
   transform="translate(-237.20001,-281.6)">
</g>
<g
   id="g66"
   transform="translate(-237.20001,-281.6)">
</g>
<g
   id="g68"
   transform="translate(-237.20001,-281.6)">
</g>
<g
   id="g70"
   transform="translate(-237.20001,-281.6)">
</g>
<g
   id="g72"
   transform="translate(-237.20001,-281.6)">
</g>
<g
   id="g74"
   transform="translate(-237.20001,-281.6)">
</g>
<path
   inkscape:connector-curvature="0"
   id="path4-6"
   d="m 146.39505,118.79046 c 5.996,-7.231 9.606,-16.51199 9.606,-26.61799 0,-23.029007 -18.735,-41.765007 -41.764,-41.765007 -23.03,0 -41.766996,18.733 -41.766996,41.765007 0,10.105 3.61,19.38599 9.606996,26.61799 l -22.224996,41.549 c -1.088,2.03 -0.72,4.533 0.905,6.167 1.627,1.633 4.127,2.013 6.164,0.938 l 16.325996,-8.625 1.887,18.368 c 0.182,1.767 1.232,3.279 2.742,4.085 0.448,0.241 0.938,0.418 1.457,0.521 2.26,0.443 4.545,-0.64 5.633,-2.669 l 19.269,-36.021 19.266,36.021 c 1.086,2.029 3.371,3.112 5.631,2.669 0.521,-0.104 1.011,-0.279 1.459,-0.521 1.509,-0.806 2.562,-2.32 2.742,-4.085 l 1.89,-18.368 16.32501,8.625 c 2.033,1.076 4.537,0.695 6.162,-0.938 1.623,-1.634 1.99,-4.137 0.904,-6.167 z m -32.155,-5.479 c -11.657,0 -21.141,-9.482 -21.141,-21.13899 0,-11.65701 9.481,-21.140007 21.141,-21.140007 11.654,0 21.139,9.479997 21.139,21.140007 -0.002,11.65499 -9.484,21.13899 -21.139,21.13899 z"
   style="fill:#307305;fill-opacity:1" /><path
   inkscape:connector-curvature="0"
   id="path4"
   d="m 138.67673,115.7676 c 5.996,-7.231 9.606,-16.511999 9.606,-26.617999 0,-23.029003 -18.735,-41.765003 -41.764,-41.765003 -23.029991,0 -41.766991,18.733 -41.766991,41.765003 0,10.105 3.61,19.385999 9.607,26.617999 l -22.225,41.549 c -1.088,2.03 -0.72,4.533 0.905,6.167 1.627,1.633 4.127,2.013 6.164,0.938 l 16.326,-8.625 1.887,18.368 c 0.182,1.767 1.232,3.279 2.742,4.085 0.448,0.241 0.938,0.418 1.457,0.521 2.26,0.443 4.545,-0.64 5.633,-2.669 l 19.268991,-36.021 19.266,36.021 c 1.086,2.029 3.371,3.112 5.631,2.669 0.521,-0.104 1.011,-0.279 1.459,-0.521 1.509,-0.806 2.562,-2.32 2.742,-4.085 l 1.89,-18.368 16.32501,8.625 c 2.033,1.076 4.537,0.695 6.162,-0.938 1.623,-1.634 1.99,-4.137 0.904,-6.167 z m -32.155,-5.479 c -11.656991,0 -21.140991,-9.482 -21.140991,-21.138999 0,-11.657003 9.481,-21.140003 21.140991,-21.140003 11.654,0 21.139,9.48 21.139,21.140003 -0.002,11.654999 -9.484,21.138999 -21.139,21.138999 z"
   style="fill:#ffffff" /></svg>