<?xml version="1.0" encoding="iso-8859-1"?>
<!-- Generator: Adobe Illustrator 16.0.0, SVG Export Plug-In . SVG Version: 6.00 Build 0)  -->
<!DOCTYPE svg PUBLIC "-//W3C//DTD SVG 1.1//EN" "http://www.w3.org/Graphics/SVG/1.1/DTD/svg11.dtd">
<svg version="1.1" id="Capa_1" xmlns="http://www.w3.org/2000/svg" xmlns:xlink="http://www.w3.org/1999/xlink" x="0px" y="0px"
	 width="420px" height="420.001px" viewBox="0 0 420 420.001" style="enable-background:new 0 0 420 420.001;" xml:space="preserve"
	>
<g>
	<g>
		<path d="M307.5,0h-195C72.862,0,40.614,32.25,40.614,71.889v276.222c0,39.642,32.248,71.89,71.887,71.89h195
			c4.766,0,9.338-1.893,12.707-5.264l53.916-53.916c3.373-3.371,5.264-7.941,5.264-12.71V71.889C379.387,32.25,347.139,0,307.5,0z
			 M343.444,308.934h-55.658c-10.732,0-19.465,8.73-19.465,19.465v55.658h-155.82c-19.818,0-35.943-16.125-35.943-35.945V71.889
			c0-19.82,16.125-35.945,35.943-35.945h195c19.818,0,35.943,16.125,35.943,35.945V308.934z"/>
		<path d="M124.401,87h65c5.523,0,10-4.478,10-10s-4.477-10-10-10h-65c-5.523,0-10,4.478-10,10S118.878,87,124.401,87z"/>
		<path d="M189.401,127c5.523,0,10-4.478,10-10s-4.477-10-10-10h-65c-5.523,0-10,4.478-10,10s4.477,10,10,10H189.401z"/>
		<path d="M282.5,175h-145c-5.523,0-10,4.478-10,10s4.477,10,10,10h145c5.523,0,10-4.478,10-10S288.024,175,282.5,175z"/>
		<path d="M282.5,215h-145c-5.523,0-10,4.479-10,10s4.477,10,10,10h145c5.523,0,10-4.479,10-10S288.024,215,282.5,215z"/>
		<circle cx="147.401" cy="324" r="30"/>
	</g>
</g>
<g>
</g>
<g>
</g>
<g>
</g>
<g>
</g>
<g>
</g>
<g>
</g>
<g>
</g>
<g>
</g>
<g>
</g>
<g>
</g>
<g>
</g>
<g>
</g>
<g>
</g>
<g>
</g>
<g>
</g>
</svg>
