<?xml version="1.0" encoding="UTF-8" standalone="no"?>
<svg
   width="512"
   height="512"
   inkscape:version="1.1 (c68e22c387, 2021-05-23)"
   sodipodi:docname="CheckResult.svg"
   version="1.1"
   id="svg382"
   xmlns:inkscape="http://www.inkscape.org/namespaces/inkscape"
   xmlns:sodipodi="http://sodipodi.sourceforge.net/DTD/sodipodi-0.dtd"
   xmlns="http://www.w3.org/2000/svg"
   xmlns:svg="http://www.w3.org/2000/svg">
  <defs
     id="defs356" />
  <sodipodi:namedview
     id="namedview32"
     pagecolor="#505050"
     bordercolor="#eeeeee"
     borderopacity="1"
     inkscape:pageshadow="0"
     inkscape:pageopacity="0"
     inkscape:pagecheckerboard="0"
     showgrid="false"
     fit-margin-top="0"
     fit-margin-left="0"
     fit-margin-right="0"
     fit-margin-bottom="0"
     inkscape:zoom="1.0658334"
     inkscape:cx="245.34792"
     inkscape:cy="226.58326"
     inkscape:window-width="2055"
     inkscape:window-height="1091"
     inkscape:window-x="5260"
     inkscape:window-y="198"
     inkscape:window-maximized="0" />
  <g
     id="g27"
     transform="matrix(0.82217234,0,0,0.82217234,12.346298,12.346349)">
    <svg
       id="g14"
       version="1.1"
       width="100%"
       height="100%">
      <svg
         id="g6"
         version="1.1"
         width="100%"
         height="100%">
        <path
           id="path2"
           fill="#000000"
           d="M 21.961,143.307 C 9.756,172.164 3.567,202.792 3.567,234.341 c 0,31.549 6.188,62.178 18.394,91.036 11.78,27.85 28.635,52.854 50.097,74.316 21.462,21.461 46.465,38.316 74.316,50.096 28.857,12.205 59.486,18.395 91.035,18.395 31.549,0 62.178,-6.189 91.035,-18.395 4.836,-2.045 9.579,-4.254 14.239,-6.602 l 131.022,131.021 c 11.607,11.607 27.038,17.998 43.452,17.998 16.413,0 31.845,-6.391 43.451,-17.996 l 10.561,-10.562 c 23.959,-23.959 23.96,-62.943 0.002,-86.902 L 442.03,347.605 c 3.979,-7.189 7.602,-14.598 10.828,-22.229 12.205,-28.857 18.395,-59.486 18.395,-91.035 0,-31.549 -6.188,-62.179 -18.395,-91.035 C 441.079,115.455 424.223,90.452 402.761,68.99 381.299,47.528 356.296,30.673 328.445,18.893 299.589,6.689 268.96,0.5 237.411,0.5 205.862,0.5 175.232,6.688 146.376,18.894 118.525,30.674 93.522,47.529 72.06,68.991 50.597,90.452 33.741,115.456 21.961,143.307 Z m 365.014,209.828 c -10.865,13.66 -23.562,25.795 -37.719,36.039 -11.984,8.674 -25.014,15.986 -38.866,21.719 -22.486,9.307 -47.13,14.451 -72.979,14.451 -105.488,0 -191.003,-85.514 -191.003,-191.002 0,-105.488 85.516,-191.002 191.003,-191.002 105.487,0 191.003,85.515 191.003,191.003 0,29.135 -6.534,56.74 -18.2,81.447 -6.315,13.37 -14.132,25.892 -23.239,37.345 z m 153.904,153.904 c 7.268,7.268 7.268,19.051 0,26.318 l -10.56,10.561 c -3.634,3.633 -8.396,5.449 -13.159,5.449 -4.763,0 -9.525,-1.816 -13.159,-5.449 L 379.874,419.791 c 8.011,-6.168 15.655,-12.865 22.888,-20.098 5.163,-5.162 10.052,-10.535 14.674,-16.098 z" />
        <path
           id="path4"
           fill="#000000"
           d="m 517.158,592.707 c -16.548,0 -32.105,-6.443 -43.806,-18.145 L 342.586,443.797 c -4.664,2.34 -9.354,4.511 -13.947,6.453 -28.92,12.231 -59.614,18.434 -91.229,18.434 -31.615,0 -62.31,-6.202 -91.23,-18.434 C 118.272,438.446 93.215,421.556 71.705,400.047 50.197,378.537 33.306,353.481 21.501,325.571 9.27,296.652 3.067,265.958 3.067,234.341 c 0,-31.616 6.202,-62.31 18.434,-91.229 C 33.306,115.202 50.197,90.146 71.706,68.637 93.214,47.129 118.271,30.238 146.181,18.433 175.099,6.202 205.793,0 237.411,0 c 31.616,0 62.31,6.202 91.229,18.434 27.91,11.804 52.968,28.695 74.476,50.204 21.509,21.509 38.399,46.566 50.204,74.475 12.231,28.917 18.434,59.612 18.434,91.23 0,31.614 -6.202,62.308 -18.434,91.229 -3.124,7.389 -6.713,14.771 -10.67,21.946 l 128.876,128.875 c 24.153,24.154 24.152,63.455 -0.002,87.609 l -10.561,10.562 c -11.7,11.7 -27.257,18.143 -43.805,18.143 z M 342.781,442.578 474.06,573.855 c 11.512,11.512 26.817,17.852 43.099,17.852 16.28,0 31.586,-6.339 43.098,-17.85 l 10.561,-10.562 c 23.764,-23.765 23.765,-62.432 0.002,-86.195 l -129.41,-129.408 0.183,-0.329 c 4.012,-7.249 7.646,-14.712 10.805,-22.181 12.18,-28.798 18.355,-59.36 18.355,-90.84 0,-31.483 -6.176,-62.047 -18.355,-90.84 C 440.645,115.712 423.826,90.762 402.409,69.344 380.992,47.927 356.042,31.108 328.252,19.354 299.455,7.175 268.892,1 237.411,1 205.928,1 175.365,7.175 146.571,19.354 118.78,31.109 93.83,47.928 72.413,69.344 50.996,90.761 34.177,115.711 22.422,143.501 10.243,172.296 4.068,202.859 4.068,234.341 c 0,31.482 6.175,62.045 18.354,90.841 11.754,27.789 28.573,52.739 49.99,74.157 21.418,21.417 46.369,38.235 74.158,49.988 28.796,12.18 59.359,18.355 90.84,18.355 31.481,0 62.043,-6.176 90.84,-18.355 4.678,-1.978 9.459,-4.194 14.209,-6.587 z M 517.16,549.867 c -5.104,0 -9.903,-1.987 -13.513,-5.596 l -124.529,-124.529 0.451,-0.348 c 8.03,-6.184 15.715,-12.931 22.839,-20.055 5.078,-5.077 10.004,-10.481 14.643,-16.063 l 0.351,-0.422 123.831,123.831 c 7.451,7.451 7.451,19.574 0,27.025 l -10.56,10.561 c -3.61,3.609 -8.408,5.596 -13.513,5.596 z M 380.63,419.84 504.355,543.565 c 3.421,3.42 7.969,5.303 12.806,5.303 4.837,0 9.385,-1.883 12.806,-5.303 l 10.56,-10.561 c 7.061,-7.062 7.061,-18.55 0,-25.611 L 417.47,384.337 c -4.556,5.456 -9.383,10.739 -14.354,15.71 -7.022,7.021 -14.585,13.678 -22.486,19.793 z m -143.22,6.004 c -105.595,0 -191.503,-85.907 -191.503,-191.502 0,-105.595 85.908,-191.502 191.503,-191.502 105.595,0 191.503,85.908 191.503,191.503 0,28.542 -6.14,56.016 -18.248,81.661 -6.281,13.302 -14.12,25.899 -23.299,37.443 -10.903,13.708 -23.627,25.864 -37.817,36.133 -12.096,8.754 -25.206,16.081 -38.968,21.775 -23.229,9.614 -47.848,14.489 -73.171,14.489 z m 0,-382.005 c -105.043,0 -190.503,85.459 -190.503,190.502 0,105.043 85.459,190.502 190.503,190.502 25.191,0 49.681,-4.85 72.788,-14.413 13.689,-5.665 26.731,-12.953 38.765,-21.662 14.116,-10.215 26.773,-22.309 37.62,-35.945 9.132,-11.482 16.93,-24.015 23.178,-37.248 12.045,-25.509 18.152,-52.84 18.152,-81.233 0,-105.043 -85.459,-190.503 -190.503,-190.503 z" />
      </svg>
      <svg
         id="g12"
         version="1.1"
         width="100%"
         height="100%">
        <path
           id="path8"
           fill="#000000"
           d="m 312.209,154.573 -114.098,114.098 -43.88,-43.88 c -8.365,-8.365 -21.928,-8.365 -30.293,0 -8.365,8.366 -8.365,21.928 0,30.293 l 59.026,59.025 c 4.183,4.184 9.664,6.273 15.146,6.273 5.481,0 10.964,-2.092 15.146,-6.273 l 16.021,-16.02 65.749,-65.749 47.476,-47.475 c 8.365,-8.366 8.365,-21.927 0,-30.293 -8.366,-8.364 -21.928,-8.364 -30.293,0.001 z" />
        <path
           id="path10"
           fill="#000000"
           d="m 198.111,320.883 c -5.856,0 -11.361,-2.28 -15.5,-6.42 l -59.026,-59.025 c -8.546,-8.546 -8.546,-22.453 0,-31 4.14,-4.14 9.645,-6.42 15.5,-6.42 5.855,0 11.36,2.28 15.5,6.42 l 43.526,43.527 113.744,-113.745 c 4.141,-4.14 9.645,-6.42 15.5,-6.42 5.854,0 11.359,2.28 15.5,6.42 8.546,8.547 8.546,22.453 0,31 L 213.611,314.463 c -4.141,4.14 -9.645,6.42 -15.5,6.42 z M 139.085,219.018 c -5.588,0 -10.842,2.176 -14.793,6.127 -8.156,8.157 -8.156,21.429 0,29.586 l 59.026,59.025 c 3.95,3.951 9.204,6.127 14.792,6.127 5.588,0 10.841,-2.176 14.793,-6.127 L 342.148,184.513 c 8.156,-8.157 8.156,-21.429 0,-29.586 -3.952,-3.951 -9.205,-6.127 -14.793,-6.127 -5.588,0 -10.842,2.176 -14.793,6.127 L 198.111,269.378 153.878,225.144 c -3.951,-3.951 -9.205,-6.126 -14.793,-6.126 z" />
      </svg>
    </svg>
    <svg
       id="g16"
       version="1.1"
       width="100%"
       height="100%" />
    <svg
       id="g18"
       version="1.1"
       width="100%"
       height="100%" />
    <svg
       id="g20"
       version="1.1"
       width="100%"
       height="100%" />
    <svg
       id="g22"
       version="1.1"
       width="100%"
       height="100%" />
    <svg
       id="g24"
       version="1.1"
       width="100%"
       height="100%" />
    <svg
       id="g26"
       version="1.1"
       width="100%"
       height="100%" />
    <svg
       id="g28"
       version="1.1"
       width="100%"
       height="100%" />
    <svg
       id="g30"
       version="1.1"
       width="100%"
       height="100%" />
    <svg
       id="g32"
       version="1.1"
       width="100%"
       height="100%" />
    <svg
       id="g34"
       version="1.1"
       width="100%"
       height="100%" />
    <svg
       id="g36"
       version="1.1"
       width="100%"
       height="100%" />
    <svg
       id="g38"
       version="1.1"
       width="100%"
       height="100%" />
    <svg
       id="g40"
       version="1.1"
       width="100%"
       height="100%" />
    <svg
       id="g42"
       version="1.1"
       width="100%"
       height="100%" />
    <svg
       id="g44"
       version="1.1"
       width="100%"
       height="100%" />
  </g>
</svg>
