<?xml version="1.0" encoding="utf-8"?>
<!-- Svg Vector Icons : http://www.onlinewebfonts.com/icon -->
<!DOCTYPE svg PUBLIC "-//W3C//DTD SVG 1.1//EN" "http://www.w3.org/Graphics/SVG/1.1/DTD/svg11.dtd">
<svg version="1.1" xmlns="http://www.w3.org/2000/svg" xmlns:xlink="http://www.w3.org/1999/xlink" x="0px" y="0px" viewBox="0 0 1000 1000" enable-background="new 0 0 1000 1000" xml:space="preserve">
<metadata> Svg Vector Icons : http://www.onlinewebfonts.com/icon </metadata>
<g><g transform="translate(0.000000,511.000000) scale(0.100000,-0.100000)"><path d="M2172,4972.5c-222.8-59-487.2-192.2-696.9-347.3l-174.8-131.1l-26.2,63.3c-39.3,96.1-201,235.9-294.9,253.4c-216.2,39.3-415.1-41.5-509-207.5c-96.1-170.4-89.6-216.3,124.5-930.6c107-360.4,696.8-2335.2,1310.7-4390.8c613.8-2053.4,1133.7-3772.6,1153.4-3818.5c19.7-45.9,67.7-111.4,107-144.2c211.9-185.7,568-126.7,692.5,115.8c94,181.3,98.3,161.6-397.6,1824c-253.4,845.4-460.9,1551-460.9,1566.3c0,15.3,111.4,142,246.8,279.6C3539.4-593.5,3688-510.5,3947.9-493c216.3,13.1,421.6-41.5,1081.3-290.5c806.1-303.6,1465.8-504.6,2022.8-616c148.6-28.4,303.7-37.1,633.5-39.3c380.1,0,460.9,6.5,629.1,48.1c423.8,109.2,734,292.7,1070.4,637.9c157.3,159.5,211.9,229.4,203.2,257.8c-17.5,54.6-517.7,1730.1-1127.2,3781.3c-281.8,939.3-515.5,1706.1-524.3,1703.9c-6.6-4.4-124.5-126.7-262.1-273.1c-515.5-548.3-753.6-668.4-1332.5-668.4c-297.1,0-548.3,43.7-952.4,161.6c-299.3,85.2-1020.2,336.4-1404.6,489.3c-489.3,192.2-926.2,290.5-1389.3,308C2379.5,5014,2305.2,5009.7,2172,4972.5z M2705,4398c10.9-15.3,360.4-1166.5,360.4-1184c0-13.1-63.3-24-144.2-28.4c-179.1-4.4-456.6-98.3-620.4-205.4c-65.5-43.7-218.5-179.1-336.4-299.3c-118-122.3-220.6-216.3-225-211.9c-15.3,15.3-377.9,1188.4-377.9,1221.1c0,37.1,323.3,349.5,471.9,458.7c139.8,100.5,406.3,229.4,535.2,255.6C2447.2,4419.8,2694,4415.5,2705,4398z M5370,3596.3c133.3-32.8,343-78.6,469.7-98.3c126.7-21.8,231.6-39.3,233.7-41.5c13.1-10.9,375.7-1201.5,369.2-1210.2c-37.1-35-878.1,144.2-1306.3,279.6l-146.3,45.9l-98.3,310.2c-52.4,170.4-137.6,441.3-187.9,602.9c-50.2,161.7-96.1,305.8-102.7,321.1c-6.5,15.3,96.1-8.7,260-61.2C5009.6,3699,5239,3631.2,5370,3596.3z M3583.1,2916.9c118-37.1,362.6-124.5,541.7-194.4c181.3-67.7,421.6-155.1,537.4-194.4l207.5-67.7l229.4-738.3c144.2-465.3,220.6-738.4,205.3-742.7c-26.2-6.6-288.3,85.2-827.9,290.5c-181.3,69.9-415,146.4-522.1,174.8l-196.6,50.2l-227.2,727.4c-122.3,399.8-225,736.2-225,744.9C3305.7,2997.7,3364.7,2986.8,3583.1,2916.9z M8279.8,1785.4l225-749.3l-50.2-43.7c-310.2-270.9-803.9-447.8-1192.7-428.1l-139.8,6.5l-227.2,738.3c-126.7,406.3-222.8,744.9-216.3,751.5c6.6,6.6,107,21.8,220.6,30.6c373.5,30.6,760.2,172.6,1004.9,367c61.2,45.9,120.1,83,131.1,80.8C8048.2,2536.8,8157.4,2196,8279.8,1785.4z M3646.5,1359.4c2.2,0,83-262.1,181.3-581.1c98.3-318.9,183.5-594.2,187.9-613.8c8.8-28.4-19.6-39.3-163.8-59c-386.7-54.6-629.1-179.1-950.2-489.3l-218.4-211.9L2501.8-12.5c-98.3,321.1-179.1,598.6-179.1,616c0,17.5,115.8,152.9,257.8,297.1c225,233.7,277.4,275.2,441.3,356.1c201,96.1,369.2,135.4,524.3,118C3600.6,1368.1,3646.5,1361.6,3646.5,1359.4z M5892.1,636.3c310.2-87.4,744.9-176.9,967.7-198.8l159.5-15.3l56.8-187.9c30.6-102.7,115.8-373.5,185.7-598.5c69.9-227.2,128.9-423.8,128.9-439.1c0-59-653.2,78.6-1190.5,251.2l-270.9,85.2L5831-154.5c-52.4,170.4-133.3,428.2-179.1,572.3c-43.7,144.2-85.2,275.2-91.8,292.7c-8.8,24-2.2,28.4,28.4,15.3C5610.3,717.2,5747.9,677.8,5892.1,636.3z"/></g></g>
</svg>