<?xml version="1.0" encoding="iso-8859-1"?>
<!-- Generator: Adobe Illustrator 19.0.0, SVG Export Plug-In . SVG Version: 6.00 Build 0)  -->
<svg version="1.1" id="Layer_1" xmlns="http://www.w3.org/2000/svg" xmlns:xlink="http://www.w3.org/1999/xlink" x="0px" y="0px"
	 viewBox="0 0 512 512" style="enable-background:new 0 0 512 512;" xml:space="preserve">
<g>
	<g>
		<g>
			<path d="M372.586,460.16H254.974l83.152-83.152L132.469,171.352c-2.87-2.87-7.522-2.87-10.393,0l-104.69,104.69
				c-23.18,23.178-23.185,60.704,0,83.887l126.965,126.965c11.441,11.439,26.429,17.211,41.456,17.333
				c0.163,0.003,0.323,0.025,0.487,0.025h186.289c12.175,0,22.046-9.871,22.046-22.046
				C394.63,470.031,384.761,460.16,372.586,460.16z"/>
			<path d="M489.953,460.16h-37.27c-12.176,0-22.046,9.871-22.046,22.046s9.871,22.046,22.046,22.046h37.27
				c12.175,0,22.046-9.871,22.046-22.046S502.129,460.16,489.953,460.16z"/>
			<path d="M452.297,407.453c0-12.175-9.871-22.046-22.046-22.046h-37.27c-12.175,0-22.046,9.871-22.046,22.046
				s9.871,22.046,22.046,22.046h37.27C442.426,429.5,452.297,419.63,452.297,407.453z"/>
			<path d="M364.106,340.634c2.87,2.87,7.522,2.87,10.393,0l104.688-104.69c23.128-23.128,23.128-60.76,0-83.887L352.222,25.091
				c-23.128-23.127-60.758-23.125-83.887,0.001l-104.69,104.69c-2.87,2.87-2.87,7.522,0,10.393L364.106,340.634z"/>
		</g>
	</g>
</g>
<g>
</g>
<g>
</g>
<g>
</g>
<g>
</g>
<g>
</g>
<g>
</g>
<g>
</g>
<g>
</g>
<g>
</g>
<g>
</g>
<g>
</g>
<g>
</g>
<g>
</g>
<g>
</g>
<g>
</g>
</svg>
