<?xml version="1.0" encoding="UTF-8" standalone="no"?>
<!-- Generator: Adobe Illustrator 19.0.0, SVG Export Plug-In . SVG Version: 6.00 Build 0)  -->

<svg
   version="1.1"
   id="Capa_1"
   x="0px"
   y="0px"
   viewBox="0 0 489.7 489.7"
   style="enable-background:new 0 0 489.7 489.7;"
   xml:space="preserve"
   sodipodi:docname="Monograph.svg"
   inkscape:version="1.1 (c68e22c387, 2021-05-23)"
   xmlns:inkscape="http://www.inkscape.org/namespaces/inkscape"
   xmlns:sodipodi="http://sodipodi.sourceforge.net/DTD/sodipodi-0.dtd"
   xmlns="http://www.w3.org/2000/svg"
   xmlns:svg="http://www.w3.org/2000/svg"><defs
   id="defs51" /><sodipodi:namedview
   id="namedview49"
   pagecolor="#505050"
   bordercolor="#eeeeee"
   borderopacity="1"
   inkscape:pageshadow="0"
   inkscape:pageopacity="0"
   inkscape:pagecheckerboard="0"
   showgrid="false"
   inkscape:zoom="1.7827241"
   inkscape:cx="56.65487"
   inkscape:cy="244.85001"
   inkscape:window-width="3840"
   inkscape:window-height="2071"
   inkscape:window-x="3831"
   inkscape:window-y="-9"
   inkscape:window-maximized="1"
   inkscape:current-layer="Capa_1" />
<g
   id="g14">
		<path
   d="M52.7,134.75c29.1,0,52.7-23.7,52.7-52.7s-23.6-52.8-52.7-52.8S0,52.95,0,81.95S23.7,134.75,52.7,134.75z M52.7,53.75    c15.6,0,28.2,12.7,28.2,28.2s-12.7,28.2-28.2,28.2s-28.2-12.7-28.2-28.2S37.2,53.75,52.7,53.75z"
   id="path2" />
		<path
   d="M52.7,297.55c29.1,0,52.7-23.7,52.7-52.7s-23.6-52.7-52.7-52.7S0,215.75,0,244.85S23.7,297.55,52.7,297.55z M52.7,216.65    c15.6,0,28.2,12.7,28.2,28.2s-12.7,28.2-28.2,28.2s-28.2-12.6-28.2-28.2S37.2,216.65,52.7,216.65z"
   id="path4" />
		<path
   d="M52.7,460.45c29.1,0,52.7-23.7,52.7-52.7c0-29.1-23.7-52.7-52.7-52.7S0,378.75,0,407.75C0,436.75,23.7,460.45,52.7,460.45    z M52.7,379.45c15.6,0,28.2,12.7,28.2,28.2c0,15.6-12.7,28.2-28.2,28.2s-28.2-12.7-28.2-28.2C24.5,392.15,37.2,379.45,52.7,379.45    z"
   id="path6" />
		<path
   d="M175.9,94.25h301.5c6.8,0,12.3-5.5,12.3-12.3s-5.5-12.3-12.3-12.3H175.9c-6.8,0-12.3,5.5-12.3,12.3    S169.1,94.25,175.9,94.25z"
   id="path8" />
		<path
   d="M175.9,257.15h301.5c6.8,0,12.3-5.5,12.3-12.3s-5.5-12.3-12.3-12.3H175.9c-6.8,0-12.3,5.5-12.3,12.3    S169.1,257.15,175.9,257.15z"
   id="path10" />
		<path
   d="M175.9,419.95h301.5c6.8,0,12.3-5.5,12.3-12.3s-5.5-12.3-12.3-12.3H175.9c-6.8,0-12.3,5.5-12.3,12.3    S169.1,419.95,175.9,419.95z"
   id="path12" />
	</g>















</svg>
