<?xml version="1.0" encoding="iso-8859-1"?>
<!-- Generator: Adobe Illustrator 16.0.0, SVG Export Plug-In . SVG Version: 6.00 Build 0)  -->
<!DOCTYPE svg PUBLIC "-//W3C//DTD SVG 1.1//EN" "http://www.w3.org/Graphics/SVG/1.1/DTD/svg11.dtd">
<svg version="1.1" id="Capa_1" xmlns="http://www.w3.org/2000/svg" xmlns:xlink="http://www.w3.org/1999/xlink" x="0px" y="0px"
	 width="124px" height="124px" viewBox="0 0 124 124" style="enable-background:new 0 0 124 124;" xml:space="preserve">
<g>
	<path d="M61.9,70h19.5c4.1,0,7.6-3.1,7.8-7.2c0.2-4.3-3.3-7.8-7.5-7.8H76c-3.6,0-6.5-2.8-6.5-6.3V33.9c0-4.3-3.2-7.7-7.6-7.5
		C57.8,26.5,55,30,55,34.1v28.7c0,2.101,0.5,3.8,1.9,5.2C58.3,69.3,59.8,70,61.9,70z"/>
	<path d="M62,124c34.2,0,62-27.8,62-62S96.2,0,62,0S0,27.8,0,62S27.8,124,62,124z M62,20c23.2,0,42,18.8,42,42s-18.8,42-42,42
		S20,85.2,20,62S38.8,20,62,20z"/>
</g>
<g>
</g>
<g>
</g>
<g>
</g>
<g>
</g>
<g>
</g>
<g>
</g>
<g>
</g>
<g>
</g>
<g>
</g>
<g>
</g>
<g>
</g>
<g>
</g>
<g>
</g>
<g>
</g>
<g>
</g>
</svg>
