<?xml version="1.0" encoding="UTF-8" standalone="no"?>
<svg
   version="1.1"
   width="512"
   height="512"
   inkscape:version="1.1 (c68e22c387, 2021-05-23)"
   sodipodi:docname="SampleWorkflow.svg"
   id="svg30"
   xmlns:inkscape="http://www.inkscape.org/namespaces/inkscape"
   xmlns:sodipodi="http://sodipodi.sourceforge.net/DTD/sodipodi-0.dtd"
   xmlns="http://www.w3.org/2000/svg"
   xmlns:svg="http://www.w3.org/2000/svg">
  <defs
     id="defs20" />
  <sodipodi:namedview
     inkscape:zoom="1.0658333"
     inkscape:cx="168.88194"
     inkscape:cy="278.18609"
     inkscape:window-width="2472"
     inkscape:window-height="1627"
     inkscape:window-x="4748"
     inkscape:window-y="328"
     inkscape:window-maximized="0"
     inkscape:current-layer="g9"
     id="namedview22"
     pagecolor="#505050"
     bordercolor="#eeeeee"
     borderopacity="1"
     inkscape:pageshadow="0"
     inkscape:pageopacity="0"
     inkscape:pagecheckerboard="0" />
  <g
     id="g9">
    <path
       id="path2"
       fill="#000000"
       d="M 346,0 H 166 c -8.28516,0 -15,6.714844 -15,15 v 110 c 0,8.28516 6.71484,15 15,15 h 180 c 8.28516,0 15,-6.71484 15,-15 V 15 C 361,6.714844 354.28516,0 346,0 Z m 0,0" />
    <path
       id="path4"
       fill="#000000"
       d="M 346,186 H 166 c -8.28516,0 -15,6.71484 -15,15 v 110 c 0,8.28516 6.71484,15 15,15 h 180 c 8.28516,0 15,-6.71484 15,-15 V 201 c 0,-8.28516 -6.71484,-15 -15,-15 z m 0,0" />
    <path
       id="path6"
       fill="#000000"
       d="M 346,372 H 166 c -8.28516,0 -15,6.71484 -15,15 v 110 c 0,8.28516 6.71484,15 15,15 h 180 c 8.28516,0 15,-6.71484 15,-15 V 387 c 0,-8.28516 -6.71484,-15 -15,-15 z m 0,0" />
    <path
       id="path8"
       fill="#000000"
       d="m 457,78 h -60 c -8.28516,0 -15,6.714844 -15,15 0,8.28516 6.71484,15 15,15 h 60 c 13.78516,0 25,11.21484 25,25 v 60 c 0,13.78516 -11.21484,25 -25,25 h -23.78516 l 14.39063,-14.39453 c 5.85937,-5.85547 5.85937,-15.35547 0,-21.21094 -5.85547,-5.85937 -15.35547,-5.85937 -21.21094,0 l -40,40 c -5.85937,5.85547 -5.85937,15.35156 0,21.21094 l 40,40 C 429.32031,286.53516 433.16016,288 437,288 c 3.83984,0 7.67969,-1.46484 10.60547,-4.39453 5.85937,-5.85547 5.85937,-15.35547 0,-21.21094 L 433.21484,248 H 457 c 30.32812,0 55,-24.67188 55,-55 v -60 c 0,-30.32813 -24.67188,-55 -55,-55 z m 0,0" />
    <path
       id="path10"
       fill="#000000"
       d="m 85.605469,368.39453 c -5.855469,-5.85937 -15.355469,-5.85937 -21.210938,0 -5.859375,5.85547 -5.859375,15.35547 0,21.21094 L 78.785156,404 H 55 C 41.214844,404 30,392.78516 30,379 v -60 c 0,-13.78516 11.214844,-25 25,-25 h 60 c 8.28516,0 15,-6.71484 15,-15 0,-8.28516 -6.71484,-15 -15,-15 H 55 C 24.671875,264 0,288.67187 0,319 v 60 c 0,30.32812 24.671875,55 55,55 h 23.785156 l -14.390625,14.39453 c -5.859375,5.85547 -5.859375,15.35547 0,21.21094 C 67.320312,472.53516 71.160156,474 75,474 c 3.839844,0 7.679688,-1.46484 10.605469,-4.39453 l 40.000001,-40 c 5.85937,-5.85547 5.85937,-15.35547 0,-21.21094 z m 0,0" />
  </g>
</svg>
