<?xml version="1.0" encoding="iso-8859-1"?>
<!-- Generator: Adobe Illustrator 19.0.0, SVG Export Plug-In . SVG Version: 6.00 Build 0)  -->
<svg version="1.1" id="Layer_1" xmlns="http://www.w3.org/2000/svg" xmlns:xlink="http://www.w3.org/1999/xlink" x="0px" y="0px"
	 viewBox="0 0 512.001 512.001" style="enable-background:new 0 0 512.001 512.001;" xml:space="preserve">
<g>
	<g>
		<path d="M17.339,8.227C7.763,8.227,0,15.989,0,25.565v460.87c0,9.575,7.763,17.339,17.339,17.339h47.449V8.227H17.339z"/>
	</g>
</g>
<g>
	<g>
		<path d="M380.927,8.227H99.463v495.547h281.464c9.575,0,17.339-7.763,17.339-17.339V25.565
			C398.265,15.989,390.503,8.227,380.927,8.227z"/>
	</g>
</g>
<g>
	<g>
		<path d="M510.451,103.934l-18.063-39.8c-2.812-6.195-8.986-10.173-15.788-10.173h-31.265c-9.575,0-17.339,7.763-17.339,17.339
			v79.601c0,9.575,7.763,17.339,17.339,17.339H476.6c6.804,0,12.977-3.977,15.788-10.173l18.063-39.8
			C512.517,113.712,512.517,108.487,510.451,103.934z"/>
	</g>
</g>
<g>
	<g>
		<path d="M476.599,198.862h-31.265c-9.575,0-17.339,7.763-17.339,17.339v79.601c0,9.575,7.763,17.339,17.339,17.339h31.265
			c9.575,0,17.339-7.763,17.339-17.339v-79.601C493.937,206.624,486.174,198.862,476.599,198.862z"/>
	</g>
</g>
<g>
	<g>
		<path d="M476.599,343.762h-31.265c-9.575,0-17.339,7.763-17.339,17.339v79.601c0,9.575,7.763,17.339,17.339,17.339h31.265
			c9.575,0,17.339-7.763,17.339-17.339v-79.601C493.937,351.525,486.174,343.762,476.599,343.762z"/>
	</g>
</g>
<g>
</g>
<g>
</g>
<g>
</g>
<g>
</g>
<g>
</g>
<g>
</g>
<g>
</g>
<g>
</g>
<g>
</g>
<g>
</g>
<g>
</g>
<g>
</g>
<g>
</g>
<g>
</g>
<g>
</g>
</svg>
