<?xml version="1.0" encoding="UTF-8" standalone="no"?>
<!-- Created with Inkscape (http://www.inkscape.org/) -->

<svg
   xmlns:dc="http://purl.org/dc/elements/1.1/"
   xmlns:cc="http://creativecommons.org/ns#"
   xmlns:rdf="http://www.w3.org/1999/02/22-rdf-syntax-ns#"
   xmlns:svg="http://www.w3.org/2000/svg"
   xmlns="http://www.w3.org/2000/svg"
   xmlns:sodipodi="http://sodipodi.sourceforge.net/DTD/sodipodi-0.dtd"
   xmlns:inkscape="http://www.inkscape.org/namespaces/inkscape"
   width="16mm"
   height="16mm"
   viewBox="0 0 16 16"
   version="1.1"
   id="svg8"
   inkscape:version="0.92.4 (5da689c313, 2019-01-14)"
   sodipodi:docname="specifications.svg">
  <defs
     id="defs2" />
  <sodipodi:namedview
     id="base"
     pagecolor="#ffffff"
     bordercolor="#666666"
     borderopacity="1.0"
     inkscape:pageopacity="0.0"
     inkscape:pageshadow="2"
     inkscape:zoom="7.9195959"
     inkscape:cx="9.378768"
     inkscape:cy="-24.020567"
     inkscape:document-units="mm"
     inkscape:current-layer="layer1"
     showgrid="false"
     fit-margin-top="0"
     fit-margin-left="0"
     fit-margin-right="0"
     fit-margin-bottom="0"
     inkscape:window-width="3840"
     inkscape:window-height="2080"
     inkscape:window-x="2869"
     inkscape:window-y="-11"
     inkscape:window-maximized="1" />
  <metadata
     id="metadata5">
    <rdf:RDF>
      <cc:Work
         rdf:about="">
        <dc:format>image/svg+xml</dc:format>
        <dc:type
           rdf:resource="http://purl.org/dc/dcmitype/StillImage" />
        <dc:title></dc:title>
      </cc:Work>
    </rdf:RDF>
  </metadata>
  <g
     inkscape:label="Calque 1"
     inkscape:groupmode="layer"
     id="layer1"
     transform="translate(-78.781453,-105.1916)">
    <g
       aria-label="&gt;?&gt;"
       style="font-style:normal;font-variant:normal;font-weight:normal;font-stretch:normal;font-size:10.58333302px;line-height:1.25;font-family:'Bauhaus 93';-inkscape-font-specification:'Bauhaus 93, Normal';font-variant-ligatures:normal;font-variant-caps:normal;font-variant-numeric:normal;font-feature-settings:normal;text-align:start;letter-spacing:0px;word-spacing:0px;writing-mode:lr-tb;text-anchor:start;fill:#000000;fill-opacity:1;stroke:none;stroke-width:0.26458332"
       id="text4520"
       transform="translate(0.3674956,-4.2763124)">
      <path
         d="M 78.781453,120.76786 V 118.892 l 2.58899,-1.4211 -2.583822,-1.4211 v -1.86552 l 4.578532,2.50631 v 1.57613 z"
         style="font-style:normal;font-variant:normal;font-weight:normal;font-stretch:normal;font-size:10.58333302px;font-family:'Bauhaus 93';-inkscape-font-specification:'Bauhaus 93, Normal';font-variant-ligatures:normal;font-variant-caps:normal;font-variant-numeric:normal;font-feature-settings:normal;text-align:start;writing-mode:lr-tb;text-anchor:start;stroke-width:0.26458332"
         id="path4522"
         inkscape:connector-curvature="0" />
      <path
         d="m 87.447591,118.46309 h -1.917196 v -0.32556 q 0,-0.64596 0.144694,-0.95085 0.144694,-0.31006 0.5271,-0.48059 l 0.3514,-0.15503 q 0.397908,-0.1757 0.397908,-0.49609 0,-0.18604 -0.129191,-0.31523 -0.129191,-0.12919 -0.315226,-0.12919 -0.506429,0 -0.506429,0.7028 h -1.782837 q 0,-0.94051 0.434082,-1.53479 0.320394,-0.43925 0.831991,-0.69763 0.511596,-0.25838 1.059366,-0.25838 0.971517,0 1.632976,0.64595 0.666626,0.64079 0.666626,1.59164 0,1.17305 -0.950847,1.64847 -0.310058,0.15503 -0.377238,0.26872 -0.06718,0.11369 -0.06718,0.48576 z m -0.925008,0.27388 q 0.506429,0 0.868164,0.36691 0.366902,0.3669 0.366902,0.87333 0,0.50643 -0.361735,0.86299 -0.361735,0.3514 -0.873331,0.3514 -0.532267,0 -0.8785,-0.34106 -0.341064,-0.34623 -0.341064,-0.8785 0,-0.51676 0.356567,-0.87333 0.356568,-0.36174 0.862997,-0.36174 z"
         style="font-style:normal;font-variant:normal;font-weight:normal;font-stretch:normal;font-size:10.58333302px;font-family:'Bauhaus 93';-inkscape-font-specification:'Bauhaus 93, Normal';font-variant-ligatures:normal;font-variant-caps:normal;font-variant-numeric:normal;font-feature-settings:normal;text-align:start;writing-mode:lr-tb;text-anchor:start;stroke-width:0.26458332"
         id="path4524"
         inkscape:connector-curvature="0" />
      <path
         d="M 89.695516,120.76786 V 118.892 l 2.588989,-1.4211 -2.583821,-1.4211 v -1.86552 l 4.578531,2.50631 v 1.57613 z"
         style="font-style:normal;font-variant:normal;font-weight:normal;font-stretch:normal;font-size:10.58333302px;font-family:'Bauhaus 93';-inkscape-font-specification:'Bauhaus 93, Normal';font-variant-ligatures:normal;font-variant-caps:normal;font-variant-numeric:normal;font-feature-settings:normal;text-align:start;writing-mode:lr-tb;text-anchor:start;stroke-width:0.26458332"
         id="path4526"
         inkscape:connector-curvature="0" />
    </g>
  </g>
</svg>
