<?xml version="1.0" encoding="UTF-8" standalone="no"?>
<svg
   xmlns:dc="http://purl.org/dc/elements/1.1/"
   xmlns:cc="http://creativecommons.org/ns#"
   xmlns:rdf="http://www.w3.org/1999/02/22-rdf-syntax-ns#"
   xmlns:svg="http://www.w3.org/2000/svg"
   xmlns="http://www.w3.org/2000/svg"
   xmlns:sodipodi="http://sodipodi.sourceforge.net/DTD/sodipodi-0.dtd"
   xmlns:inkscape="http://www.inkscape.org/namespaces/inkscape"
   inkscape:version="1.0 (4035a4fb49, 2020-05-01)"
   sodipodi:docname="HlabVect.svg"
   id="svg8"
   version="1.1"
   viewBox="0 0 58.585644 14.192062"
   height="14.192062mm"
   width="58.585644mm">
  <defs
     id="defs2" />
  <sodipodi:namedview
     inkscape:window-maximized="1"
     inkscape:window-y="-11"
     inkscape:window-x="2869"
     inkscape:window-height="2066"
     inkscape:window-width="3840"
     fit-margin-bottom="0"
     fit-margin-right="0"
     fit-margin-left="0"
     fit-margin-top="0"
     inkscape:guide-bbox="true"
     showguides="true"
     showgrid="false"
     inkscape:document-rotation="0"
     inkscape:current-layer="layer1"
     inkscape:document-units="mm"
     inkscape:cy="51.982242"
     inkscape:cx="165.06657"
     inkscape:zoom="3.0123596"
     inkscape:pageshadow="2"
     inkscape:pageopacity="0.0"
     borderopacity="1.0"
     bordercolor="#666666"
     pagecolor="#ffffff"
     id="base">
    <sodipodi:guide
       id="guide863"
       orientation="0,-1"
       position="55.682296,1.3841843" />
    <sodipodi:guide
       id="guide865"
       orientation="1,0"
       position="30.823191,1.3841843" />
    <sodipodi:guide
       id="guide867"
       orientation="1,0"
       position="58.585026,1.3841843" />
    <sodipodi:guide
       id="guide869"
       orientation="0,-1"
       position="32.034278,14.092394" />
  </sodipodi:namedview>
  <metadata
     id="metadata5">
    <rdf:RDF>
      <cc:Work
         rdf:about="">
        <dc:format>image/svg+xml</dc:format>
        <dc:type
           rdf:resource="http://purl.org/dc/dcmitype/StillImage" />
        <dc:title></dc:title>
      </cc:Work>
    </rdf:RDF>
  </metadata>
  <g
     transform="translate(-66.498503,-137.34316)"
     id="layer1"
     inkscape:groupmode="layer"
     inkscape:label="Calque 1">
    <g
       style="font-style:normal;font-variant:normal;font-weight:normal;font-stretch:normal;font-size:10.5422px;line-height:1.25;font-family:Audiowide;-inkscape-font-specification:'Audiowide, Normal';font-variant-ligatures:normal;font-variant-caps:normal;font-variant-numeric:normal;font-variant-east-asian:normal;fill:#000000;fill-opacity:1;stroke:none;stroke-width:0.263555"
       id="text835"
       transform="scale(0.99611624,1.0038989)"
       aria-label="LIMS">
      <path
         id="path915"
         style="font-style:normal;font-variant:normal;font-weight:normal;font-stretch:normal;font-size:10.5422px;font-family:Audiowide;-inkscape-font-specification:'Audiowide, Normal';font-variant-ligatures:normal;font-variant-caps:normal;font-variant-numeric:normal;font-variant-east-asian:normal;fill:#000000;stroke-width:0.263555"
         d="m 104.41727,144.29678 h -6.105009 q -0.144132,0 -0.267673,-0.0515 -0.123542,-0.0515 -0.216198,-0.13899 -0.08751,-0.0927 -0.138984,-0.21619 -0.05148,-0.12355 -0.05148,-0.26768 v -6.70727 h 1.338366 v 6.04324 h 5.440974 z" />
      <path
         id="path917"
         style="font-style:normal;font-variant:normal;font-weight:normal;font-stretch:normal;font-size:10.5422px;font-family:Audiowide;-inkscape-font-specification:'Audiowide, Normal';font-variant-ligatures:normal;font-variant-caps:normal;font-variant-numeric:normal;font-variant-east-asian:normal;fill:#000000;stroke-width:0.263555"
         d="m 106.74911,144.29678 h -1.33837 v -7.3816 h 1.33837 z" />
      <path
         id="path919"
         style="font-style:normal;font-variant:normal;font-weight:normal;font-stretch:normal;font-size:10.5422px;font-family:Audiowide;-inkscape-font-specification:'Audiowide, Normal';font-variant-ligatures:normal;font-variant-caps:normal;font-variant-numeric:normal;font-variant-east-asian:normal;fill:#000000;stroke-width:0.263555"
         d="m 116.91554,144.29678 h -1.34866 v -4.39601 l -2.37303,4.17467 q -0.0875,0.15957 -0.24708,0.24193 -0.15443,0.0824 -0.33459,0.0824 -0.17502,0 -0.32945,-0.0824 -0.14927,-0.0824 -0.23678,-0.24193 l -2.38332,-4.17467 v 4.39601 h -1.33837 v -6.81022 q 0,-0.23164 0.13384,-0.4118 0.13898,-0.18017 0.36033,-0.24194 0.1081,-0.0257 0.2162,-0.0154 0.10809,0.005 0.2059,0.0463 0.10295,0.036 0.18531,0.1081 0.0824,0.0669 0.13898,0.16472 l 3.04736,5.29684 3.04735,-5.29684 q 0.1184,-0.19561 0.3243,-0.27797 0.21105,-0.0824 0.43754,-0.0257 0.2162,0.0618 0.35518,0.24194 0.13899,0.18016 0.13899,0.4118 z" />
      <path
         id="path921"
         style="font-style:normal;font-variant:normal;font-weight:normal;font-stretch:normal;font-size:10.5422px;font-family:Audiowide;-inkscape-font-specification:'Audiowide, Normal';font-variant-ligatures:normal;font-variant-caps:normal;font-variant-numeric:normal;font-variant-east-asian:normal;fill:#000000;stroke-width:0.263555"
         d="m 125.56858,142.12451 q 0,0.39637 -0.10295,0.71551 -0.0978,0.31401 -0.26252,0.55594 -0.16472,0.24194 -0.38607,0.41181 -0.22134,0.16986 -0.45813,0.27796 -0.23679,0.1081 -0.48387,0.15958 -0.24194,0.0515 -0.45813,0.0515 h -5.16301 v -1.33836 h 5.16301 q 0.38606,0 0.59711,-0.22649 0.2162,-0.2265 0.2162,-0.60742 0,-0.18531 -0.0566,-0.33974 -0.0566,-0.15442 -0.16473,-0.26767 -0.10295,-0.11324 -0.25737,-0.17502 -0.14928,-0.0618 -0.33459,-0.0618 h -3.07824 q -0.3243,0 -0.70007,-0.11324 -0.37577,-0.1184 -0.70007,-0.37577 -0.31915,-0.25738 -0.53535,-0.67433 -0.21105,-0.41696 -0.21105,-1.01922 0,-0.60227 0.21105,-1.01407 0.2162,-0.41695 0.53535,-0.67433 0.3243,-0.26253 0.70007,-0.37577 0.37577,-0.1184 0.70007,-0.1184 h 4.55558 v 1.33837 h -4.55558 q -0.38092,0 -0.59712,0.23164 -0.21105,0.23164 -0.21105,0.61256 0,0.38607 0.21105,0.61256 0.2162,0.22134 0.59712,0.22134 h 3.07824 0.0103 q 0.2162,0.005 0.45813,0.0618 0.24194,0.0515 0.47873,0.16473 0.24193,0.11324 0.45813,0.28826 0.2162,0.16987 0.38092,0.4118 0.16987,0.24194 0.26767,0.55594 0.0978,0.314 0.0978,0.71036 z" />
    </g>
    <g
       style="font-style:normal;font-variant:normal;font-weight:normal;font-stretch:normal;font-size:5.97241px;line-height:1.25;font-family:Audiowide;-inkscape-font-specification:'Audiowide, Normal';font-variant-ligatures:normal;font-variant-caps:normal;font-variant-numeric:normal;font-variant-east-asian:normal;fill:#000000;fill-opacity:1;stroke:none;stroke-width:0.14931"
       id="text843"
       transform="scale(1.0194426,0.98092823)"
       aria-label="Analysis">
      <path
         id="path924"
         style="font-style:normal;font-variant:normal;font-weight:normal;font-stretch:normal;font-size:5.97241px;font-family:Audiowide;-inkscape-font-specification:'Audiowide, Normal';font-variant-ligatures:normal;font-variant-caps:normal;font-variant-numeric:normal;font-variant-east-asian:normal;stroke-width:0.14931"
         d="M 99.634216,153.11375 H 98.876 v -1.0265 h -2.665421 v 1.0265 h -0.758217 v -2.09092 q 0,-0.45785 0.157476,-0.84279 0.157476,-0.38494 0.437432,-0.66198 0.279957,-0.27704 0.661981,-0.4316 0.382025,-0.15456 0.834038,-0.15456 h 1.708903 q 0.07874,0 0.148727,0.0292 0.06999,0.0292 0.122481,0.0817 0.05249,0.0525 0.08165,0.12248 0.02916,0.07 0.02916,0.14872 z m -3.423637,-1.78472 H 98.876 v -1.63891 h -1.332711 q -0.03499,0 -0.148727,0.0117 -0.110816,0.009 -0.259543,0.0496 -0.145811,0.0408 -0.309119,0.12539 -0.163308,0.0846 -0.30037,0.2333 -0.137062,0.14873 -0.227465,0.37328 -0.08749,0.22163 -0.08749,0.5395 z" />
      <path
         id="path926"
         style="font-style:normal;font-variant:normal;font-weight:normal;font-stretch:normal;font-size:5.97241px;font-family:Audiowide;-inkscape-font-specification:'Audiowide, Normal';font-variant-ligatures:normal;font-variant-caps:normal;font-variant-numeric:normal;font-variant-east-asian:normal;stroke-width:0.14931"
         d="m 103.92105,153.11375 h -0.75821 v -1.74973 q 0,-0.14872 -0.0525,-0.26537 -0.0496,-0.11957 -0.13707,-0.20414 -0.0875,-0.0846 -0.20705,-0.12831 -0.11665,-0.0467 -0.25371,-0.0467 h -1.32688 v 2.39421 h -0.75821 v -2.77623 q 0,-0.0787 0.0292,-0.14581 0.0292,-0.07 0.0816,-0.11957 0.0525,-0.0525 0.12248,-0.0816 0.07,-0.0292 0.14873,-0.0292 h 1.7089 q 0.1429,0 0.30037,0.0321 0.1604,0.0321 0.31496,0.10499 0.15747,0.07 0.29745,0.1808 0.14289,0.1079 0.25079,0.26538 0.11082,0.15456 0.17498,0.35869 0.0641,0.20414 0.0641,0.46076 z" />
      <path
         id="path928"
         style="font-style:normal;font-variant:normal;font-weight:normal;font-stretch:normal;font-size:5.97241px;font-family:Audiowide;-inkscape-font-specification:'Audiowide, Normal';font-variant-ligatures:normal;font-variant-caps:normal;font-variant-numeric:normal;font-variant-east-asian:normal;stroke-width:0.14931"
         d="m 107.84628,152.06975 q 0,0.15747 -0.0554,0.3412 -0.0554,0.1808 -0.1808,0.33828 -0.12248,0.15456 -0.3237,0.25954 -0.19831,0.10498 -0.4841,0.10498 h -1.3677 q -0.15748,0 -0.3412,-0.0554 -0.1808,-0.0554 -0.33828,-0.17789 -0.15456,-0.1254 -0.25954,-0.3237 -0.10499,-0.20122 -0.10499,-0.48701 0,-0.15748 0.0554,-0.3412 0.0554,-0.18372 0.17789,-0.33828 0.1254,-0.15747 0.3237,-0.26246 0.20122,-0.10498 0.48701,-0.10498 h 1.3677 v 0.72322 h -1.3677 q -0.15456,0 -0.23913,0.0962 -0.0846,0.0933 -0.0846,0.2333 0,0.14873 0.0962,0.2333 0.0992,0.0817 0.2333,0.0817 h 1.36187 q 0.15456,0 0.23913,-0.0933 0.0846,-0.0933 0.0846,-0.23329 v -1.05859 q 0,-0.14873 -0.0933,-0.23621 -0.0904,-0.0875 -0.23039,-0.0875 h -1.66515 v -0.72031 h 1.66515 q 0.15748,0 0.33829,0.0554 0.18372,0.0554 0.33828,0.18081 0.15747,0.12248 0.26246,0.3237 0.10498,0.1983 0.10498,0.48409 z" />
      <path
         id="path930"
         style="font-style:normal;font-variant:normal;font-weight:normal;font-stretch:normal;font-size:5.97241px;font-family:Audiowide;-inkscape-font-specification:'Audiowide, Normal';font-variant-ligatures:normal;font-variant-caps:normal;font-variant-numeric:normal;font-variant-east-asian:normal;stroke-width:0.14931"
         d="m 109.88471,153.11375 h -0.33828 q -0.1633,0 -0.34994,-0.0554 -0.18372,-0.0554 -0.34412,-0.18081 -0.16039,-0.12831 -0.26537,-0.32953 -0.10498,-0.20414 -0.10498,-0.49867 v -3.42073 h 0.75821 v 3.42073 q 0,0.13997 0.0875,0.22454 0.0875,0.0817 0.21871,0.0817 h 0.33828 z" />
      <path
         id="path932"
         style="font-style:normal;font-variant:normal;font-weight:normal;font-stretch:normal;font-size:5.97241px;font-family:Audiowide;-inkscape-font-specification:'Audiowide, Normal';font-variant-ligatures:normal;font-variant-caps:normal;font-variant-numeric:normal;font-variant-east-asian:normal;stroke-width:0.14931"
         d="m 113.85368,153.41704 q 0,0.19539 -0.0496,0.34995 -0.0496,0.15747 -0.13123,0.27412 -0.0817,0.11957 -0.18955,0.20122 -0.1079,0.0846 -0.22747,0.13706 -0.11665,0.0525 -0.23621,0.0758 -0.11957,0.0263 -0.22747,0.0263 h -1.3677 v -0.75822 h 1.3677 q 0.15165,0 0.22747,-0.0787 0.0758,-0.0787 0.0758,-0.22747 v -3.45572 h 0.75821 z m -1.0615,-0.30329 h -1.3677 q -0.16331,0 -0.34995,-0.0554 -0.18372,-0.0554 -0.34411,-0.18081 -0.16039,-0.12831 -0.26538,-0.32953 -0.10498,-0.20414 -0.10498,-0.49867 v -2.08802 h 0.75821 v 2.08802 q 0,0.14872 0.0787,0.22746 0.0787,0.0787 0.2333,0.0787 h 1.36187 z" />
      <path
         id="path934"
         style="font-style:normal;font-variant:normal;font-weight:normal;font-stretch:normal;font-size:5.97241px;font-family:Audiowide;-inkscape-font-specification:'Audiowide, Normal';font-variant-ligatures:normal;font-variant-caps:normal;font-variant-numeric:normal;font-variant-east-asian:normal;stroke-width:0.14931"
         d="m 117.62435,152.04934 q 0,0.19538 -0.0496,0.35286 -0.0496,0.15456 -0.13123,0.27412 -0.0817,0.11665 -0.18956,0.20122 -0.1079,0.0816 -0.22746,0.13415 -0.11665,0.0525 -0.23913,0.0787 -0.11957,0.0233 -0.22747,0.0233 h -2.05301 v -0.75821 h 2.04718 q 0.15456,0 0.2333,-0.0787 0.0787,-0.0787 0.0787,-0.22746 -0.0146,-0.30329 -0.30621,-0.30329 h -1.17523 q -0.2508,0 -0.42577,-0.0875 -0.17497,-0.0875 -0.28579,-0.21871 -0.1079,-0.13123 -0.15747,-0.28288 -0.0467,-0.15164 -0.0467,-0.28287 0,-0.25371 0.0904,-0.42577 0.0904,-0.17497 0.22746,-0.28287 0.13707,-0.1079 0.29746,-0.15456 0.16039,-0.0496 0.30037,-0.0496 h 1.86346 v 0.75822 h -1.85763 q -0.0583,0 -0.0933,0.0146 -0.0321,0.0117 -0.0496,0.035 -0.0146,0.0204 -0.0175,0.0467 -0.003,0.0233 -0.003,0.0467 0.003,0.0467 0.0175,0.0729 0.0146,0.0263 0.035,0.0379 0.0233,0.0117 0.0496,0.0146 0.0292,0 0.0554,0 h 1.17523 q 0.29163,0 0.49576,0.10499 0.20414,0.10498 0.32953,0.26537 0.1254,0.15748 0.18081,0.34412 0.0583,0.18663 0.0583,0.34703 z" />
      <path
         id="path936"
         style="font-style:normal;font-variant:normal;font-weight:normal;font-stretch:normal;font-size:5.97241px;font-family:Audiowide;-inkscape-font-specification:'Audiowide, Normal';font-variant-ligatures:normal;font-variant-caps:normal;font-variant-numeric:normal;font-variant-east-asian:normal;stroke-width:0.14931"
         d="m 118.9279,149.31392 h -0.75822 v -0.68531 h 0.75822 z m 0,3.79983 h -0.75822 v -3.15243 h 0.75822 z" />
      <path
         id="path938"
         style="font-style:normal;font-variant:normal;font-weight:normal;font-stretch:normal;font-size:5.97241px;font-family:Audiowide;-inkscape-font-specification:'Audiowide, Normal';font-variant-ligatures:normal;font-variant-caps:normal;font-variant-numeric:normal;font-variant-east-asian:normal;stroke-width:0.14931"
         d="m 122.69857,152.04934 q 0,0.19538 -0.0496,0.35286 -0.0496,0.15456 -0.13123,0.27412 -0.0816,0.11665 -0.18955,0.20122 -0.1079,0.0816 -0.22747,0.13415 -0.11665,0.0525 -0.23913,0.0787 -0.11956,0.0233 -0.22746,0.0233 h -2.05302 v -0.75821 h 2.04719 q 0.15456,0 0.23329,-0.0787 0.0787,-0.0787 0.0787,-0.22746 -0.0146,-0.30329 -0.3062,-0.30329 h -1.17524 q -0.25079,0 -0.42576,-0.0875 -0.17498,-0.0875 -0.28579,-0.21871 -0.1079,-0.13123 -0.15748,-0.28288 -0.0467,-0.15164 -0.0467,-0.28287 0,-0.25371 0.0904,-0.42577 0.0904,-0.17497 0.22747,-0.28287 0.13706,-0.1079 0.29745,-0.15456 0.1604,-0.0496 0.30037,-0.0496 h 1.86347 v 0.75822 h -1.85763 q -0.0583,0 -0.0933,0.0146 -0.0321,0.0117 -0.0496,0.035 -0.0146,0.0204 -0.0175,0.0467 -0.003,0.0233 -0.003,0.0467 0.003,0.0467 0.0175,0.0729 0.0146,0.0263 0.035,0.0379 0.0233,0.0117 0.0496,0.0146 0.0292,0 0.0554,0 h 1.17524 q 0.29162,0 0.49576,0.10499 0.20413,0.10498 0.32953,0.26537 0.12539,0.15748 0.1808,0.34412 0.0583,0.18663 0.0583,0.34703 z" />
    </g>
    <g
       style="font-style:normal;font-variant:normal;font-weight:normal;font-stretch:normal;font-size:13.3009px;line-height:1.25;font-family:Audiowide;-inkscape-font-specification:'Audiowide, Normal';font-variant-ligatures:normal;font-variant-caps:normal;font-variant-numeric:normal;font-variant-east-asian:normal;fill:#cccccc;fill-opacity:1;stroke:none;stroke-width:0.33252"
       id="text835-4"
       transform="scale(0.79297982,1.2610661)"
       aria-label="HLab">
      <path
         id="path906"
         style="font-style:normal;font-variant:normal;font-weight:normal;font-stretch:normal;font-size:13.3009px;font-family:Audiowide;-inkscape-font-specification:'Audiowide, Normal';font-variant-ligatures:normal;font-variant-caps:normal;font-variant-numeric:normal;font-variant-east-asian:normal;fill:#cccccc;stroke-width:0.33252"
         d="m 85.607753,113.45749 h 5.929552 v -3.80583 h 1.688591 v 9.31323 h -1.688591 v -3.80582 h -5.929552 v 3.80582 h -1.688591 v -9.31323 h 1.688591 z" />
      <path
         id="path908"
         style="font-style:normal;font-variant:normal;font-weight:normal;font-stretch:normal;font-size:13.3009px;font-family:Audiowide;-inkscape-font-specification:'Audiowide, Normal';font-variant-ligatures:normal;font-variant-caps:normal;font-variant-numeric:normal;font-variant-east-asian:normal;fill:#cccccc;stroke-width:0.33252"
         d="m 103.7601,118.96489 h -7.702567 q -0.181849,0 -0.337719,-0.0649 -0.15587,-0.0649 -0.272772,-0.17535 -0.110408,-0.1169 -0.175354,-0.27277 -0.06495,-0.15587 -0.06495,-0.33772 v -8.46244 h 1.688591 v 7.62464 h 6.864767 z" />
      <path
         id="path910"
         style="font-style:normal;font-variant:normal;font-weight:normal;font-stretch:normal;font-size:13.3009px;font-family:Audiowide;-inkscape-font-specification:'Audiowide, Normal';font-variant-ligatures:normal;font-variant-caps:normal;font-variant-numeric:normal;font-variant-east-asian:normal;fill:#cccccc;stroke-width:0.33252"
         d="m 112.06018,116.63983 q 0,0.35071 -0.1234,0.75987 -0.1234,0.40266 -0.40266,0.75337 -0.27278,0.34421 -0.7209,0.57801 -0.44163,0.23381 -1.0781,0.23381 h -3.04596 q -0.35071,0 -0.75987,-0.1234 -0.40266,-0.12339 -0.75337,-0.39617 -0.34421,-0.27926 -0.57801,-0.7209 -0.23381,-0.44812 -0.23381,-1.08459 0,-0.35071 0.1234,-0.75987 0.12339,-0.40915 0.39617,-0.75337 0.27926,-0.3507 0.7209,-0.58451 0.44812,-0.2338 1.08459,-0.2338 h 3.04596 v 1.61065 h -3.04596 q -0.34421,0 -0.53256,0.21432 -0.18834,0.20783 -0.18834,0.51957 0,0.33122 0.21432,0.51957 0.22082,0.18184 0.51957,0.18184 h 3.03297 q 0.34421,0 0.53255,-0.20782 0.18835,-0.20783 0.18835,-0.51957 v -2.35753 q 0,-0.33123 -0.20783,-0.52606 -0.20133,-0.19484 -0.51307,-0.19484 h -3.70841 v -1.60416 h 3.70841 q 0.35071,0 0.75337,0.1234 0.40916,0.12339 0.75337,0.40266 0.35071,0.27277 0.58451,0.7209 0.23381,0.44163 0.23381,1.0781 z" />
      <path
         id="path912"
         style="font-style:normal;font-variant:normal;font-weight:normal;font-stretch:normal;font-size:13.3009px;font-family:Audiowide;-inkscape-font-specification:'Audiowide, Normal';font-variant-ligatures:normal;font-variant-caps:normal;font-variant-numeric:normal;font-variant-east-asian:normal;fill:#cccccc;stroke-width:0.33252"
         d="m 121.2565,116.59437 q 0,0.2403 -0.0585,0.50657 -0.0519,0.26628 -0.16886,0.53256 -0.1169,0.25978 -0.30524,0.50008 -0.18185,0.2403 -0.44813,0.42865 -0.25978,0.18184 -0.60399,0.29225 -0.34422,0.11041 -0.77935,0.11041 h -3.04596 q -0.2403,0 -0.50658,-0.052 -0.26628,-0.0585 -0.53255,-0.17535 -0.25979,-0.1169 -0.50009,-0.29875 -0.2403,-0.18834 -0.42864,-0.44813 -0.18185,-0.26628 -0.29226,-0.61049 -0.1104,-0.35071 -0.1104,-0.78584 v -7.61814 h 1.68859 v 7.61814 q 0,0.31174 0.19484,0.50008 0.19483,0.18185 0.48709,0.18185 h 3.04596 q 0.31823,0 0.49359,-0.18834 0.18184,-0.18835 0.18184,-0.49359 v -2.28609 q 0,-0.31824 -0.18834,-0.49359 -0.18834,-0.18185 -0.48709,-0.18185 h -3.04596 v -1.68859 h 3.04596 q 0.2403,0 0.50657,0.0585 0.26628,0.052 0.52607,0.16886 0.26627,0.1169 0.50657,0.30524 0.2403,0.18185 0.42215,0.44813 0.18185,0.25978 0.29226,0.604 0.1104,0.34421 0.1104,0.77935 z" />
    </g>
  </g>
</svg>
