<?xml version='1.0' encoding='iso-8859-1'?>
<!DOCTYPE svg PUBLIC '-//W3C//DTD SVG 1.1//EN' 'http://www.w3.org/Graphics/SVG/1.1/DTD/svg11.dtd'>
<svg version="1.1" xmlns="http://www.w3.org/2000/svg" viewBox="0 0 301.913 301.913" xmlns:xlink="http://www.w3.org/1999/xlink" enable-background="new 0 0 301.913 301.913">
  <g>
    <path d="m280.968,156.717c-6.244,0-264.634,0-272.439,0-2.638,0-5.129,1.22-6.744,3.306-1.615,2.086-2.174,4.802-1.512,7.356 5.863,22.631 30.002,39.588 58.891,39.588 25.916,0 48.006-13.649 56.511-32.797l162.201,24.209c6.028,0.9 12.149-0.871 16.766-4.85 4.617-3.979 7.272-9.772 7.272-15.866-0.001-11.569-9.378-20.946-20.946-20.946z"/>
    <path d="m59.707,94.947c-13,0-36.77,36.77-36.77,36.77h73.539c0,0-23.769-36.77-36.769-36.77z"/>
  </g>
</svg>
