<?xml version="1.0" encoding="iso-8859-1"?>
<!-- Generator: Adobe Illustrator 16.0.0, SVG Export Plug-In . SVG Version: 6.00 Build 0)  -->
<!DOCTYPE svg PUBLIC "-//W3C//DTD SVG 1.1//EN" "http://www.w3.org/Graphics/SVG/1.1/DTD/svg11.dtd">
<svg version="1.1" id="Capa_1" xmlns="http://www.w3.org/2000/svg" xmlns:xlink="http://www.w3.org/1999/xlink" x="0px" y="0px"
	 width="119.311px" height="119.311px" viewBox="0 0 119.311 119.311" style="enable-background:new 0 0 119.311 119.311;"
	 xml:space="preserve">
<g>
	<path d="M117.511,58.36L60.91,1.759c-1.2-1.199-2.899-1.899-4.7-1.699l-47.2,3.399c-3,0.2-5.3,2.601-5.6,5.601l-3.4,47.199
		c-0.1,1.7,0.5,3.4,1.7,4.7l56.6,56.601c2.3,2.3,6.1,2.3,8.5,0l50.7-50.7C119.91,64.459,119.91,60.66,117.511,58.36z M19.71,19.66
		c4.8-4.8,12.5-4.8,17.3,0c4.8,4.8,4.8,12.5,0,17.3c-4.8,4.8-12.5,4.8-17.3,0C14.911,32.259,14.911,24.459,19.71,19.66z
		 M99.91,64.759l-35.1,35.101c-1.2,1.2-3.1,1.2-4.2,0l-32.7-32.601c-1.2-1.199-1.2-3.1,0-4.199l35.1-35.101c1.2-1.2,3.1-1.2,4.2,0
		l32.6,32.601C101.011,61.66,101.011,63.56,99.91,64.759z"/>
</g>
<g>
</g>
<g>
</g>
<g>
</g>
<g>
</g>
<g>
</g>
<g>
</g>
<g>
</g>
<g>
</g>
<g>
</g>
<g>
</g>
<g>
</g>
<g>
</g>
<g>
</g>
<g>
</g>
<g>
</g>
</svg>
