<?xml version="1.0" encoding="iso-8859-1"?>
<!-- Generator: Adobe Illustrator 16.0.0, SVG Export Plug-In . SVG Version: 6.00 Build 0)  -->
<!DOCTYPE svg PUBLIC "-//W3C//DTD SVG 1.1//EN" "http://www.w3.org/Graphics/SVG/1.1/DTD/svg11.dtd">
<svg version="1.1" id="Capa_1" xmlns="http://www.w3.org/2000/svg" xmlns:xlink="http://www.w3.org/1999/xlink" x="0px" y="0px"
	 width="34.885px" height="34.885px" viewBox="0 0 34.885 34.885" style="enable-background:new 0 0 34.885 34.885;"
	 xml:space="preserve">
<g>
	<path d="M32.884,7.822h-7.12V3.659c0-1.104-0.896-2-2-2H11.12c-1.104,0-2,0.896-2,2v4.163H2c-1.104,0-2,0.896-2,2v21.403
		c0,1.104,0.896,2,2,2h30.885c1.104,0,2-0.896,2-2V9.822C34.884,8.718,33.99,7.822,32.884,7.822z M13.121,5.66h8.645v2.163h-8.645
		V5.66z M30.884,29.226H4V11.822h26.885L30.884,29.226L30.884,29.226z M15.238,22.792h-4.131v-4.414h4.131V14.25h4.413v4.128h4.129
		v4.414H19.65v4.129h-4.413V22.792z"/>
</g>
<g>
</g>
<g>
</g>
<g>
</g>
<g>
</g>
<g>
</g>
<g>
</g>
<g>
</g>
<g>
</g>
<g>
</g>
<g>
</g>
<g>
</g>
<g>
</g>
<g>
</g>
<g>
</g>
<g>
</g>
</svg>
