<?xml version="1.0" encoding="UTF-8" standalone="no"?>
<svg
   inkscape:version="1.1 (c68e22c387, 2021-05-23)"
   sodipodi:docname="notification.svg"
   version="1.1"
   data-name="24x24/On Light/Notification"
   id="_24x24_On_Light_Notification"
   viewBox="0 0 24 24"
   height="24px"
   width="24px"
   xmlns:inkscape="http://www.inkscape.org/namespaces/inkscape"
   xmlns:sodipodi="http://sodipodi.sourceforge.net/DTD/sodipodi-0.dtd"
   xmlns="http://www.w3.org/2000/svg"
   xmlns:svg="http://www.w3.org/2000/svg"
   xmlns:rdf="http://www.w3.org/1999/02/22-rdf-syntax-ns#"
   xmlns:cc="http://creativecommons.org/ns#"
   xmlns:dc="http://purl.org/dc/elements/1.1/">
  <metadata
     id="metadata9">
    <rdf:RDF>
      <cc:Work
         rdf:about="">
        <dc:format>image/svg+xml</dc:format>
        <dc:type
           rdf:resource="http://purl.org/dc/dcmitype/StillImage" />
      </cc:Work>
    </rdf:RDF>
  </metadata>
  <defs
     id="defs7" />
  <sodipodi:namedview
     inkscape:current-layer="_24x24_On_Light_Notification"
     inkscape:window-maximized="1"
     inkscape:window-y="-11"
     inkscape:window-x="-11"
     inkscape:cy="12.011905"
     inkscape:cx="12"
     inkscape:zoom="42"
     showgrid="false"
     id="namedview5"
     inkscape:window-height="2053"
     inkscape:window-width="3840"
     inkscape:pageshadow="2"
     inkscape:pageopacity="0"
     guidetolerance="10"
     gridtolerance="10"
     objecttolerance="10"
     borderopacity="1"
     bordercolor="#666666"
     pagecolor="#ffffff"
     inkscape:pagecheckerboard="0" />
  <rect
     fill="none"
     height="24"
     width="24"
     id="view-box" />
  <path
     style="fill:#000000;fill-opacity:1;stroke:none"
     fill="#000000"
     transform="translate(3.25 2.25)"
     d="M6,17v-.5H2.25A2.253,2.253,0,0,1,0,14.25v-.382a2.542,2.542,0,0,1,1.415-2.289A1.248,1.248,0,0,0,2.1,10.572l.446-4.91a6.225,6.225,0,0,1,12.4,0l.446,4.91a1.26,1.26,0,0,0,.686,1.005,2.547,2.547,0,0,1,1.418,2.29v.382a2.252,2.252,0,0,1-2.25,2.25H11.5V17A2.75,2.75,0,0,1,6,17Zm1.5,0A1.25,1.25,0,0,0,10,17v-.5H7.5ZM4.045,5.8,3.6,10.708A2.738,2.738,0,0,1,2.089,12.92a1.055,1.055,0,0,0-.589.949v.382A.751.751,0,0,0,2.25,15h13A.751.751,0,0,0,16,14.25v-.382a1.054,1.054,0,0,0-.586-.948A2.739,2.739,0,0,1,13.9,10.708L13.456,5.8a4.725,4.725,0,0,0-9.411,0Z"
     id="Shape" />
</svg>
