<?xml version="1.0" encoding="iso-8859-1"?>
<!-- Generator: Adobe Illustrator 19.0.0, SVG Export Plug-In . SVG Version: 6.00 Build 0)  -->
<svg version="1.1" id="Layer_1" xmlns="http://www.w3.org/2000/svg" xmlns:xlink="http://www.w3.org/1999/xlink" x="0px" y="0px"
	 viewBox="0 0 511.999 511.999" style="enable-background:new 0 0 511.999 511.999;" xml:space="preserve">
<g>
	<g>
		<path d="M188.484,0H42.204C25.137,0,11.25,13.885,11.25,30.954v450.09c0,17.068,13.885,30.954,30.954,30.954h146.28
			c17.068,0,30.954-13.885,30.954-30.954V30.954C219.438,13.885,205.553,0,188.484,0z M202.529,481.044
			c0,7.745-6.3,14.045-14.045,14.045H42.204c-7.745,0-14.045-6.3-14.045-14.045V264.447h174.371V481.044z M202.529,247.539H28.159
			V30.954c0-7.745,6.301-14.045,14.045-14.045h146.28c7.745,0,14.045,6.3,14.045,14.045V247.539z"/>
	</g>
</g>
<g>
	<g>
		<path d="M379.775,0c-66.712,0-120.985,54.269-120.985,120.974c0,66.706,54.274,120.974,120.985,120.974
			c66.705,0,120.974-54.269,120.974-120.974S446.481,0,379.775,0z M379.775,16.908c54.535,0,99.403,42.168,103.721,95.611H276.043
			C280.361,59.077,325.234,16.908,379.775,16.908z M379.775,225.04c-54.542,0-99.415-42.168-103.732-95.611h207.453
			C479.178,182.871,434.311,225.04,379.775,225.04z"/>
	</g>
</g>
<g>
	<g>
		<path d="M465.314,305.485c-22.849-22.852-53.23-35.439-85.545-35.439s-62.696,12.587-85.543,35.439
			c-47.165,47.165-47.165,123.909,0,171.075c22.848,22.853,53.228,35.439,85.544,35.439c32.316,0,62.696-12.587,85.543-35.439
			c22.849-22.848,35.431-53.225,35.431-85.537C500.744,358.711,488.161,328.333,465.314,305.485z M306.182,317.442
			c19.654-19.659,45.788-30.486,73.586-30.486c24.96,0,48.561,8.753,67.351,24.766L300.467,458.364
			C265.738,417.524,267.623,356.001,306.182,317.442z M453.354,464.606c-19.654,19.659-45.788,30.486-73.587,30.486
			c-24.959,0-48.561-8.753-67.351-24.765l146.658-146.648c16.009,18.79,24.76,42.388,24.76,67.345
			C483.835,418.82,473.01,444.951,453.354,464.606z"/>
	</g>
</g>
<g>
</g>
<g>
</g>
<g>
</g>
<g>
</g>
<g>
</g>
<g>
</g>
<g>
</g>
<g>
</g>
<g>
</g>
<g>
</g>
<g>
</g>
<g>
</g>
<g>
</g>
<g>
</g>
<g>
</g>
</svg>
