<?xml version="1.0" encoding="iso-8859-1"?>
<!-- Generator: Adobe Illustrator 16.0.0, SVG Export Plug-In . SVG Version: 6.00 Build 0)  -->
<!DOCTYPE svg PUBLIC "-//W3C//DTD SVG 1.1//EN" "http://www.w3.org/Graphics/SVG/1.1/DTD/svg11.dtd">
<svg version="1.1" id="Capa_1" xmlns="http://www.w3.org/2000/svg" xmlns:xlink="http://www.w3.org/1999/xlink" x="0px" y="0px"
	 width="31.474px" height="31.474px" viewBox="0 0 31.474 31.474" style="enable-background:new 0 0 31.474 31.474;"
	 xml:space="preserve">
<g>
	<g>
		<path d="M13.684,22.954c6.007,0,10.875-4.869,10.875-10.875c0-6.005-4.868-10.875-10.875-10.875S2.808,6.073,2.808,12.079
			S7.678,22.954,13.684,22.954z M13.684,4.156c4.368,0,7.921,3.554,7.921,7.922c0,4.369-3.554,7.922-7.921,7.922
			c-4.368,0-7.922-3.554-7.922-7.922C5.762,7.71,9.316,4.156,13.684,4.156z"/>
		<path d="M28.404,9.583c-0.109-0.66-1.129-5.96-5.938-9.316c-0.669-0.467-1.589-0.304-2.056,0.366
			c-0.467,0.668-0.303,1.588,0.367,2.055c3.953,2.761,4.709,7.348,4.717,7.389l0.019,0.105c0.789,3.524-0.854,11.334-8.229,13.421
			c-7,1.981-11.418-2.615-11.622-2.832c-0.551-0.598-1.483-0.634-2.083-0.085c-0.6,0.552-0.64,1.485-0.088,2.086
			c0.192,0.209,4.024,4.283,10.32,4.283c0.465,0,0.947-0.032,1.438-0.079v1.544h-3.571c-0.816,0-1.477,0.661-1.477,1.477
			c0,0.816,0.661,1.478,1.477,1.478H21.77c0.815,0,1.478-0.661,1.478-1.478c0-0.814-0.661-1.477-1.478-1.477h-3.569v-2.116
			C26.732,23.916,29.607,15.078,28.404,9.583z"/>
	</g>
</g>
<g>
</g>
<g>
</g>
<g>
</g>
<g>
</g>
<g>
</g>
<g>
</g>
<g>
</g>
<g>
</g>
<g>
</g>
<g>
</g>
<g>
</g>
<g>
</g>
<g>
</g>
<g>
</g>
<g>
</g>
</svg>
