<?xml version="1.0" encoding="UTF-8" standalone="no"?>
<svg
   width="32"
   height="32"
   overflow="visible"
   version="1.1"
   viewBox="0 0 32 32"
   id="svg10"
   sodipodi:docname="Cancelled2.svg"
   inkscape:version="1.2-beta (1b65182ce9, 2022-04-05)"
   xmlns:inkscape="http://www.inkscape.org/namespaces/inkscape"
   xmlns:sodipodi="http://sodipodi.sourceforge.net/DTD/sodipodi-0.dtd"
   xmlns="http://www.w3.org/2000/svg"
   xmlns:svg="http://www.w3.org/2000/svg">
  <defs
     id="defs14" />
  <sodipodi:namedview
     id="namedview12"
     pagecolor="#000000"
     bordercolor="#000000"
     borderopacity="0.25"
     inkscape:pageshadow="2"
     inkscape:pageopacity="0"
     inkscape:pagecheckerboard="0"
     inkscape:deskcolor="#d1d1d1"
     showgrid="true"
     inkscape:zoom="38.730596"
     inkscape:cx="30.531418"
     inkscape:cy="14.910692"
     inkscape:window-width="3840"
     inkscape:window-height="2071"
     inkscape:window-x="-9"
     inkscape:window-y="-9"
     inkscape:window-maximized="1"
     inkscape:current-layer="svg10">
    <inkscape:grid
       type="xygrid"
       id="grid384" />
  </sodipodi:namedview>
  <path
     id="path10198"
     style="fill:#800000;stroke-width:16;stroke-linecap:round;stroke-linejoin:round"
     d="M 31,16 A 15,15 0 0 1 16,31 15,15 0 0 1 1,16 15,15 0 0 1 16,1 15,15 0 0 1 31,16 Z" />
  <path
     id="path12495-5"
     style="fill:#ffffff;stroke:none;stroke-width:68.4188;stroke-linecap:round;stroke-linejoin:round"
     d="M 16,0 A 16,16 0 0 0 0,16 16,16 0 0 0 16,32 16,16 0 0 0 32,16 16,16 0 0 0 16,0 Z m 0,2 A 14,14 0 0 1 30,16 14,14 0 0 1 16,30 14,14 0 0 1 2,16 14,14 0 0 1 16,2 Z" />
  <rect
     style="fill:#ffffff;stroke:none;stroke-width:14.7258;stroke-linecap:round;stroke-linejoin:round"
     id="rect16378"
     width="18"
     height="4"
     x="-8.8535089"
     y="20.626944"
     transform="rotate(-44.629062)" />
  <rect
     style="fill:#ffffff;stroke:none;stroke-width:14.7258;stroke-linecap:round;stroke-linejoin:round"
     id="rect16378-7"
     width="18"
     height="4"
     x="13.602923"
     y="-3.0525491"
     transform="rotate(47.666164)" />
</svg>
