<?xml version="1.0" encoding="UTF-8" standalone="no"?>
<svg
   width="32"
   height="32"
   overflow="visible"
   version="1.1"
   viewBox="0 0 32 32"
   id="svg10"
   sodipodi:docname="Conformity.svg"
   inkscape:version="1.2-beta (1b65182ce9, 2022-04-05)"
   xmlns:inkscape="http://www.inkscape.org/namespaces/inkscape"
   xmlns:sodipodi="http://sodipodi.sourceforge.net/DTD/sodipodi-0.dtd"
   xmlns="http://www.w3.org/2000/svg"
   xmlns:svg="http://www.w3.org/2000/svg">
  <defs
     id="defs14" />
  <sodipodi:namedview
     id="namedview12"
     pagecolor="#000000"
     bordercolor="#000000"
     borderopacity="0.25"
     inkscape:pageshadow="2"
     inkscape:pageopacity="0"
     inkscape:pagecheckerboard="0"
     inkscape:deskcolor="#d1d1d1"
     showgrid="true"
     inkscape:zoom="13.693334"
     inkscape:cx="61.745374"
     inkscape:cy="28.663583"
     inkscape:window-width="3840"
     inkscape:window-height="2071"
     inkscape:window-x="-9"
     inkscape:window-y="-9"
     inkscape:window-maximized="1"
     inkscape:current-layer="svg10">
    <inkscape:grid
       type="xygrid"
       id="grid384" />
  </sodipodi:namedview>
  <path
     id="rect20319"
     style="fill:#008000;stroke-width:16;stroke-linecap:round;stroke-linejoin:round"
     d="M 16,16 V 1 l 11,4 4,11 z"
     sodipodi:nodetypes="ccccc" />
  <path
     id="rect20265"
     style="fill:#800000;stroke-width:16;stroke-linecap:round;stroke-linejoin:round;fill-opacity:1"
     d="M 1,16 H 15.2259 V 32 L 5,26 Z"
     sodipodi:nodetypes="ccccc" />
  <path
     id="rect20374"
     style="fill:#0056d6;stroke-width:16;stroke-linecap:round;stroke-linejoin:round;fill-opacity:1"
     d="M 5,5 16,1 V 16 H 1 Z"
     sodipodi:nodetypes="ccccc" />
  <path
     id="rect20374-2"
     style="fill:#ffc100;stroke-width:16;stroke-linecap:round;stroke-linejoin:round;fill-opacity:1"
     d="M 16,16 H 31 L 27,27 16,31 Z"
     sodipodi:nodetypes="ccccc" />
  <path
     id="path441"
     style="fill:#ffffff;stroke-width:128;stroke-linecap:round;stroke-linejoin:round"
     d="M 16 0 A 16 16 0 0 0 0 16 A 16 16 0 0 0 16 32 A 16 16 0 0 0 32 16 A 16 16 0 0 0 16 0 z M 16 2 A 14 14 0 0 1 29.855469 14 L 20.582031 14 A 5 5 0 0 0 16 11 A 5 5 0 0 0 11 16 A 5 5 0 0 0 16 21 A 5 5 0 0 0 20.564453 18 L 29.84375 18 A 14 14 0 0 1 16 30 A 14 14 0 0 1 2 16 A 14 14 0 0 1 16 2 z " />
  <rect
     style="fill:#ffffff;stroke-width:16;stroke-linecap:round;stroke-linejoin:round"
     id="rect20263"
     width="4"
     height="12"
     x="14"
     y="19" />
</svg>
