<?xml version="1.0" encoding="UTF-8" standalone="no"?>
<svg
   xmlns:dc="http://purl.org/dc/elements/1.1/"
   xmlns:cc="http://creativecommons.org/ns#"
   xmlns:rdf="http://www.w3.org/1999/02/22-rdf-syntax-ns#"
   xmlns:svg="http://www.w3.org/2000/svg"
   xmlns="http://www.w3.org/2000/svg"
   xmlns:sodipodi="http://sodipodi.sourceforge.net/DTD/sodipodi-0.dtd"
   xmlns:inkscape="http://www.inkscape.org/namespaces/inkscape"
   inkscape:version="1.0 (4035a4fb49, 2020-05-01)"
   height="235.573"
   width="262.05066"
   sodipodi:docname="attention-svgrepo-com.svg"
   xml:space="preserve"
   viewBox="0 0 262.05067 235.573"
   y="0px"
   x="0px"
   id="Capa_1"
   version="1.1"><metadata
   id="metadata39"><rdf:RDF><cc:Work
       rdf:about=""><dc:format>image/svg+xml</dc:format><dc:type
         rdf:resource="http://purl.org/dc/dcmitype/StillImage" /><dc:title></dc:title></cc:Work></rdf:RDF></metadata><defs
   id="defs37" /><sodipodi:namedview
   inkscape:current-layer="Capa_1"
   inkscape:window-maximized="1"
   inkscape:window-y="-11"
   inkscape:window-x="-11"
   inkscape:cy="118.03798"
   inkscape:cx="179.47111"
   inkscape:zoom="4.0971114"
   fit-margin-bottom="0"
   fit-margin-right="0"
   fit-margin-left="0"
   fit-margin-top="0"
   showgrid="false"
   id="namedview35"
   inkscape:window-height="1526"
   inkscape:window-width="2880"
   inkscape:pageshadow="2"
   inkscape:pageopacity="0"
   guidetolerance="10"
   gridtolerance="10"
   objecttolerance="10"
   borderopacity="1"
   bordercolor="#666666"
   pagecolor="#ffffff" />

<g
   transform="translate(-14.082873,-4.9755168)"
   id="g4">
</g>
<g
   transform="translate(-14.082873,-4.9755168)"
   id="g6">
</g>
<g
   transform="translate(-14.082873,-4.9755168)"
   id="g8">
</g>
<g
   transform="translate(-14.082873,-4.9755168)"
   id="g10">
</g>
<g
   transform="translate(-14.082873,-4.9755168)"
   id="g12">
</g>
<g
   transform="translate(-14.082873,-4.9755168)"
   id="g14">
</g>
<g
   transform="translate(-14.082873,-4.9755168)"
   id="g16">
</g>
<g
   transform="translate(-14.082873,-4.9755168)"
   id="g18">
</g>
<g
   transform="translate(-14.082873,-4.9755168)"
   id="g20">
</g>
<g
   transform="translate(-14.082873,-4.9755168)"
   id="g22">
</g>
<g
   transform="translate(-14.082873,-4.9755168)"
   id="g24">
</g>
<g
   transform="translate(-14.082873,-4.9755168)"
   id="g26">
</g>
<g
   transform="translate(-14.082873,-4.9755168)"
   id="g28">
</g>
<g
   transform="translate(-14.082873,-4.9755168)"
   id="g30">
</g>
<g
   transform="translate(-14.082873,-4.9755168)"
   id="g32">
</g>
<path
   sodipodi:nodetypes="ccsccssscc"
   d="M 250.76293,191.28099 151.94893,20.131 c -4.367,-7.564 -12.189,-12.0809998 -20.924,-12.0809998 -8.735,0 -16.557,4.5159998 -20.924,12.0809998 L 11.287932,191.28099 c -4.3680003,7.564 -4.3680003,16.596 0,24.161 4.368,7.565 12.189,12.081 20.924,12.081 H 229.84093 c 8.734,0 16.556,-4.516 20.923,-12.08 4.367,-7.565 4.366,-16.597 -10e-4,-24.162 z"
   id="path2-0"
   style="fill:#ffc000;fill-opacity:1;stroke:#000000;stroke-width:16.1;stroke-miterlimit:4;stroke-dasharray:none" /><path
   d="m 122.69233,56.090211 c -4.142,0 -7.5,3.357996 -7.5,7.499996 v 72.666013 c 0,8.73 7.10203,15.83398 15.83203,15.83398 8.73,0 15.83399,-7.10398 15.83399,-15.83398 V 63.590207 c 0,-4.142 -3.357,-7.499996 -7.5,-7.499996 z m 8.33203,115.939439 c -8.672,0 -15.72656,7.05557 -15.72656,15.72657 0,8.672 7.05456,15.72656 15.72656,15.72656 8.671,0 15.72556,-7.05356 15.72656,-15.72656 0,-8.671 -7.05456,-15.72657 -15.72656,-15.72657 z"
   style="fill:#000000;fill-opacity:1;stroke-width:3.77953;stroke-linejoin:bevel"
   id="rect864" /></svg>
